<svg width="291" height="267" viewBox="0 0 291 267" fill="none" xmlns="http://www.w3.org/2000/svg">
<path d="M142.735 263.4C192.935 263.4 233.635 257.85 233.635 251C233.635 244.15 192.935 238.6 142.735 238.6C92.535 238.6 51.835 244.15 51.835 251C51.835 257.85 92.525 263.4 142.735 263.4Z" fill="#E1E1E1"/>
<path d="M82.835 149.4C84.435 156.4 80.935 163.2 82.835 166.5C84.335 169.2 85.335 166.2 87.135 163.9C85.335 167.6 85.235 173.4 87.235 175.6C90.035 178.7 92.235 171.4 92.235 171.4C91.635 173.3 91.335 181.3 94.235 183.1C96.735 184.6 98.135 179.2 98.835 177.1C98.435 181 100.635 185.3 102.735 185.8C105.435 186.4 106.035 181.2 106.435 178.8C106.635 181.8 108.835 185.6 111.335 185.6C114.335 185.6 114.435 181.5 114.235 179.4" fill="#FF8C00"/>
<path d="M103.025 173C100.325 172.2 97.725 171.1 95.025 170.1C94.225 169.8 99.025 162.3 98.125 162.2C94.025 168.6 88.425 166.9 87.525 163.2C86.225 163.9 84.125 160.4 83.925 151.7C84.025 152.1 81.625 163.6 82.725 166.4C83.925 169.5 85.625 166.8 85.625 166.8C85.025 168.7 84.125 173.6 87.025 175.4C89.525 176.9 92.425 173.8 93.125 171.6C92.725 175.5 100.325 185.2 102.425 185.7C105.125 186.3 106.025 181.2 106.425 178.7C106.625 181.7 108.225 185.4 110.725 185.4C113.725 185.4 114.325 181.5 114.225 179.3L108.825 174.2C106.855 174.003 104.911 173.601 103.025 173Z" fill="#DD6E09"/>
<path d="M102.865 187.21C102.613 187.21 102.361 187.183 102.115 187.13C100.425 186.73 98.955 184.98 98.115 182.7C97.6331 183.521 96.9005 184.166 96.025 184.54C95.5922 184.698 95.129 184.753 94.6711 184.703C94.2133 184.653 93.7732 184.498 93.385 184.25C91.295 183.02 90.535 179.9 90.385 176.96C90.1041 177.128 89.8012 177.256 89.485 177.34C88.825 177.492 88.136 177.461 87.4925 177.249C86.8491 177.038 86.2759 176.654 85.835 176.14C84.055 174.36 83.715 171.33 84.245 168.26C83.5594 168.256 82.8898 168.052 82.318 167.674C81.7462 167.296 81.2969 166.759 81.025 166.13C80.025 164.04 80.485 161.67 81.025 158.93C81.565 156.19 82.185 153.12 81.415 149.73C81.3574 149.538 81.3398 149.337 81.3632 149.139C81.3866 148.94 81.4506 148.748 81.5511 148.575C81.6517 148.403 81.7867 148.252 81.9477 148.134C82.1088 148.015 82.2925 147.931 82.4874 147.886C82.6823 147.842 82.8844 147.838 83.0809 147.874C83.2775 147.911 83.4645 147.988 83.6302 148.1C83.7959 148.212 83.9369 148.356 84.0444 148.525C84.1518 148.694 84.2235 148.883 84.255 149.08C84.8997 152.538 84.7733 156.096 83.885 159.5C83.435 161.73 83.055 163.65 83.645 164.87C83.885 165.38 84.145 165.36 84.245 165.35C84.4522 165.302 84.6476 165.212 84.8195 165.087C84.9913 164.962 85.136 164.803 85.245 164.62C85.4116 164.193 85.595 163.777 85.795 163.37C85.9579 163.053 86.2311 162.807 86.563 162.678C86.8949 162.548 87.2627 162.545 87.597 162.668C87.9314 162.79 88.2093 163.031 88.3783 163.345C88.5474 163.659 88.596 164.023 88.515 164.37C88.3696 164.899 88.1543 165.407 87.875 165.88C86.605 169.21 86.545 172.75 87.875 174.05C88.035 174.2 88.465 174.57 88.735 174.51C89.465 174.32 90.425 172.46 90.825 171.16V171.04C90.9514 170.687 91.2089 170.396 91.544 170.228C91.8792 170.059 92.2662 170.026 92.625 170.136C92.9837 170.245 93.2867 170.488 93.471 170.815C93.6553 171.141 93.7069 171.526 93.615 171.89V172.04C93.015 174.19 93.085 180.67 94.895 181.73C94.9373 181.761 94.9847 181.785 95.035 181.8C95.335 181.72 96.035 181.01 97.325 177.17L97.465 176.73C97.5765 176.386 97.8116 176.096 98.1248 175.916C98.438 175.735 98.8069 175.677 99.1603 175.753C99.5137 175.829 99.8263 176.033 100.038 176.326C100.249 176.62 100.344 176.981 100.305 177.34C99.935 180.92 101.725 184.02 102.795 184.27C102.848 184.285 102.905 184.287 102.959 184.275C103.013 184.263 103.063 184.237 103.105 184.2C103.695 183.78 104.485 182.12 104.915 178.71C104.966 178.355 105.145 178.031 105.419 177.8C105.693 177.569 106.042 177.446 106.401 177.456C106.759 177.466 107.101 177.608 107.362 177.854C107.623 178.1 107.784 178.433 107.815 178.79C107.985 181.29 109.695 183.93 111.155 183.93C111.305 183.945 111.457 183.926 111.599 183.874C111.741 183.822 111.87 183.739 111.975 183.63C112.295 183.29 112.825 182.31 112.695 179.56C112.686 179.368 112.714 179.177 112.779 178.996C112.844 178.815 112.944 178.649 113.073 178.507C113.334 178.22 113.698 178.049 114.085 178.03C114.472 178.011 114.851 178.147 115.138 178.408C115.425 178.669 115.596 179.033 115.615 179.42C115.755 182.42 115.255 184.42 114.095 185.64C113.714 186.032 113.256 186.342 112.75 186.55C112.245 186.758 111.702 186.86 111.155 186.85C110.222 186.785 109.32 186.49 108.528 185.993C107.736 185.496 107.079 184.811 106.615 184C106.252 185.019 105.607 185.914 104.755 186.58C104.207 186.983 103.546 187.204 102.865 187.21Z" fill="#323643"/>
<path d="M148.635 97.5C144.635 98.9 138.535 95.3 135.235 102.9C131.935 110.5 124.835 121.9 112.535 132.8C99.035 140.7 89.535 134.8 95.835 129.6C84.735 134.9 71.935 131.7 80.135 123C65.235 132.4 50.935 122.2 64.235 118.1C77.535 114 95.435 97.9 101.035 86.1C106.635 74.3 112.535 77.3 121.035 82.1C130.535 87.4 140.135 88 144.935 84.2C148.535 85.7 136.025 92.2 148.635 97.5Z" fill="white"/>
<path d="M100.855 137.44C97.095 137.44 94.005 136.39 92.795 134.53C92.3712 133.879 92.1873 133.102 92.275 132.33C84.375 135.08 78.905 133.53 76.945 130.52C76.5533 129.929 76.2919 129.261 76.1782 128.561C76.0644 127.861 76.1008 127.145 76.285 126.46C69.745 129.13 63.455 128.65 60.005 126.46C58.235 125.32 57.335 123.74 57.555 122.15C57.775 120.56 58.985 118.59 63.665 117.15C76.245 113.27 94.195 97.65 99.915 85.6C102.235 80.72 104.715 78 107.735 77.04C112.085 75.66 116.735 78.28 121.635 81.04C130.775 86.14 140.205 87.1 144.065 83.33C144.181 83.2164 144.319 83.1268 144.47 83.0664C144.62 83.0059 144.782 82.9757 144.944 82.9776C145.107 82.9795 145.267 83.0133 145.417 83.0772C145.566 83.1411 145.701 83.2338 145.815 83.35C145.929 83.4662 146.018 83.6037 146.079 83.7545C146.139 83.9054 146.169 84.0667 146.167 84.2292C146.166 84.3917 146.132 84.5522 146.068 84.7016C146.004 84.8511 145.911 84.9864 145.795 85.1C141.105 89.69 130.665 88.91 120.435 83.19C115.225 80.25 111.585 78.4 108.485 79.38C106.195 80.11 104.125 82.48 102.145 86.64C96.145 99.18 77.495 115.45 64.395 119.49C61.325 120.44 60.115 121.65 60.005 122.49C59.895 123.33 60.905 124.11 61.345 124.39C64.105 126.17 71.415 127.15 79.275 122.19C79.4063 122.095 79.5551 122.026 79.7129 121.989C79.8706 121.951 80.0343 121.945 80.1944 121.97C80.3546 121.996 80.5082 122.053 80.6464 122.138C80.7846 122.222 80.9048 122.334 81 122.465C81.0952 122.596 81.1636 122.745 81.2013 122.903C81.239 123.061 81.2453 123.224 81.2197 123.384C81.1942 123.545 81.1374 123.698 81.0525 123.836C80.9676 123.975 80.8563 124.095 80.725 124.19C78.725 125.86 78.075 127.79 79.015 129.19C80.735 131.83 87.015 132.46 95.295 128.41C95.5761 128.244 95.9116 128.197 96.2276 128.279C96.5436 128.36 96.8142 128.564 96.98 128.845C97.1458 129.126 97.193 129.462 97.1115 129.778C97.0299 130.094 96.8261 130.364 96.545 130.53C95.835 131.02 94.255 132.27 94.865 133.2C96.275 135.36 104.585 136.29 111.785 131.87C123.655 124.58 132.205 105.65 133.785 101.93C136.495 95.8 139.905 95.93 143.205 96.06C144.58 96.1783 145.965 96.094 147.315 95.81C147.472 95.7706 147.635 95.7625 147.795 95.7862C147.955 95.8098 148.109 95.8648 148.248 95.9479C148.387 96.031 148.508 96.1407 148.604 96.2706C148.701 96.4005 148.771 96.5481 148.81 96.705C148.849 96.862 148.857 97.0251 148.834 97.1852C148.81 97.3452 148.755 97.4991 148.672 97.6379C148.589 97.7767 148.479 97.8978 148.349 97.9943C148.22 98.0907 148.072 98.1606 147.915 98.2C146.336 98.5425 144.715 98.6503 143.105 98.52C140.105 98.4 138.105 98.32 136.045 102.9C133.735 108.28 125.255 126.46 113.045 133.95C109.369 136.188 105.158 137.394 100.855 137.44Z" fill="#323643"/>
<path d="M175.125 259C174.162 258.999 173.215 258.762 172.365 258.31C155.175 249.23 151.865 240.9 151.365 239.31C151.051 238.299 151.015 237.222 151.259 236.191C151.504 235.161 152.02 234.215 152.754 233.452C153.489 232.689 154.414 232.137 155.434 231.854C156.455 231.57 157.532 231.565 158.555 231.84C164.119 233.199 169.828 233.871 175.555 233.84H175.675C177.245 233.824 178.757 234.433 179.879 235.532C181 236.63 181.639 238.13 181.655 239.7C181.671 241.27 181.062 242.782 179.963 243.904C178.865 245.025 177.365 245.664 175.795 245.68H174.045C175.198 246.347 176.462 247.06 177.835 247.82C179.014 248.429 179.954 249.415 180.504 250.622C181.055 251.829 181.184 253.186 180.872 254.475C180.56 255.764 179.823 256.911 178.781 257.731C177.739 258.552 176.451 258.999 175.125 259Z" fill="#323643"/>
<path d="M141.635 249.42C140.065 249.435 138.553 248.825 137.433 247.725C136.312 246.625 135.675 245.125 135.66 243.555C135.645 241.985 136.255 240.473 137.355 239.353C138.455 238.232 139.955 237.595 141.525 237.58C144.393 237.597 147.238 237.079 149.915 236.05C146.855 215.3 145.775 196.17 145.725 195.32C145.669 193.77 146.224 192.261 147.269 191.116C148.315 189.971 149.768 189.281 151.316 189.196C152.864 189.111 154.384 189.637 155.549 190.66C156.714 191.684 157.43 193.124 157.545 194.67C157.545 194.89 158.775 216.44 162.185 237.97C162.321 238.833 162.264 239.716 162.019 240.554C161.773 241.393 161.345 242.166 160.765 242.82C159.825 243.88 154.495 249.17 141.765 249.41L141.635 249.42Z" fill="#323643"/>
<path d="M141.635 246C140.972 246 140.336 245.737 139.867 245.268C139.398 244.799 139.135 244.163 139.135 243.5C139.135 242.837 139.398 242.201 139.867 241.732C140.336 241.263 140.972 241 141.635 241C148.055 240.87 151.965 238.91 153.635 237.8C150.335 216.34 149.155 195.35 149.135 195.13C149.098 194.467 149.326 193.816 149.768 193.321C150.211 192.826 150.832 192.527 151.495 192.49C152.158 192.453 152.809 192.681 153.304 193.123C153.799 193.566 154.098 194.187 154.135 194.85C154.135 195.07 155.365 216.78 158.805 238.5C158.87 238.904 158.834 239.318 158.702 239.705C158.569 240.092 158.344 240.44 158.045 240.72C157.825 240.93 152.525 245.78 141.685 245.99L141.635 246Z" fill="white"/>
<path d="M178.335 167.6C178.235 183.9 165.935 202.6 152.235 195.8C135.535 204.3 119.435 184.2 119.435 167.9C119.438 162.012 121.215 156.262 124.535 151.4" fill="#FF8C00"/>
<path d="M175.135 255.6C174.727 255.6 174.326 255.501 173.965 255.31C157.625 246.68 154.905 239.17 154.645 238.31C154.517 237.887 154.503 237.437 154.605 237.007C154.708 236.577 154.922 236.181 155.227 235.861C155.532 235.541 155.917 235.307 156.341 235.184C156.766 235.061 157.216 235.053 157.645 235.16C163.536 236.598 169.581 237.31 175.645 237.28H175.695C176.358 237.28 176.994 237.543 177.463 238.012C177.932 238.481 178.195 239.117 178.195 239.78C178.195 240.443 177.932 241.079 177.463 241.548C176.994 242.017 176.358 242.28 175.695 242.28C171.321 242.333 166.95 241.999 162.635 241.28C165.085 243.8 169.255 247.18 176.205 250.85C176.699 251.111 177.091 251.53 177.319 252.04C177.546 252.549 177.597 253.121 177.463 253.663C177.328 254.205 177.016 254.686 176.576 255.03C176.136 255.374 175.593 255.56 175.035 255.56L175.135 255.6Z" fill="white"/>
<path d="M178.235 168.4C181.535 181.2 165.435 202.5 151.735 195.6C135.035 204.1 114.935 183.5 120.535 158.9C122.835 183.4 172.935 175.6 178.235 168.4Z" fill="#DD6E09"/>
<path d="M144.235 199.14C140.408 199.098 136.669 197.982 133.445 195.92C124.445 190.35 117.915 178.47 117.975 167.69C117.975 161.494 119.847 155.444 123.345 150.33C123.591 150.032 123.94 149.836 124.323 149.782C124.705 149.728 125.095 149.818 125.414 150.036C125.733 150.254 125.96 150.584 126.049 150.96C126.138 151.336 126.083 151.732 125.895 152.07C122.746 156.674 121.063 162.122 121.065 167.7C121.005 177.33 127.065 188.33 135.065 193.29C138.855 195.63 144.805 197.69 151.625 194.22L152.245 193.9L152.895 194.16C157.175 195.87 161.955 195.03 166.345 191.81C173.345 186.68 177.575 176.92 176.875 167.51C176.602 163.567 175.613 159.708 173.955 156.12C173.798 155.762 173.782 155.358 173.911 154.989C174.039 154.62 174.303 154.313 174.648 154.129C174.993 153.946 175.395 153.9 175.772 154C176.15 154.1 176.476 154.34 176.685 154.67C178.558 158.627 179.671 162.902 179.965 167.27C180.735 177.71 175.965 188.57 168.175 194.27C163.105 197.99 157.535 199.03 152.405 197.27C149.853 198.489 147.063 199.127 144.235 199.14Z" fill="#323643"/>
<path d="M140.525 266.82C139.333 266.833 138.165 266.485 137.175 265.82C121.575 255 118.835 242 118.725 241.45C118.457 240.15 118.628 238.798 119.211 237.606C119.793 236.413 120.755 235.448 121.945 234.86C123.112 234.29 124.437 234.129 125.706 234.403C126.976 234.677 128.117 235.37 128.945 236.37C129.425 236.86 133.755 240.98 143.325 241.8C144.119 241.839 144.898 242.037 145.614 242.383C146.33 242.729 146.969 243.216 147.493 243.815C148.016 244.413 148.414 245.111 148.662 245.867C148.91 246.623 149.003 247.421 148.936 248.213C148.869 249.006 148.643 249.777 148.271 250.48C147.899 251.183 147.39 251.804 146.773 252.306C146.155 252.808 145.444 253.18 144.68 253.401C143.915 253.621 143.115 253.686 142.325 253.59C141.658 253.537 141.028 253.47 140.435 253.39C141.435 254.27 142.625 255.15 143.895 256.02C144.933 256.737 145.714 257.767 146.126 258.96C146.537 260.153 146.556 261.446 146.181 262.65C145.806 263.855 145.056 264.908 144.04 265.656C143.025 266.404 141.797 266.809 140.535 266.81L140.525 266.82Z" fill="#323643"/>
<path d="M108.025 257.82C106.611 257.816 105.246 257.306 104.175 256.382C103.105 255.459 102.4 254.183 102.189 252.785C101.978 251.388 102.273 249.96 103.023 248.762C103.772 247.563 104.926 246.672 106.275 246.25C111.015 244.771 115.313 242.139 118.785 238.59C117.026 224.321 116.812 209.905 118.145 195.59C118.329 194.041 119.117 192.628 120.338 191.657C121.559 190.686 123.113 190.235 124.664 190.404C126.214 190.573 127.636 191.346 128.619 192.557C129.602 193.768 130.068 195.318 129.915 196.87C129.915 197.11 127.645 218.52 130.915 239.53C131.157 241.048 130.798 242.601 129.915 243.86C124.77 250.362 117.771 255.147 109.845 257.58C109.255 257.754 108.64 257.835 108.025 257.82Z" fill="#323643"/>
<path d="M140.525 263.4C140.034 263.399 139.553 263.253 139.145 262.98C137.119 261.62 135.206 260.099 133.425 258.43C124.045 249.68 122.255 241.15 122.175 240.79C122.07 240.251 122.146 239.693 122.39 239.201C122.634 238.709 123.033 238.311 123.525 238.069C124.018 237.827 124.577 237.753 125.115 237.86C125.654 237.967 126.142 238.248 126.505 238.66C126.505 238.66 131.635 244.23 143.135 245.21C143.463 245.238 143.783 245.331 144.075 245.483C144.368 245.634 144.628 245.842 144.84 246.094C145.052 246.346 145.212 246.638 145.312 246.952C145.412 247.266 145.448 247.597 145.42 247.925C145.392 248.253 145.299 248.573 145.147 248.865C144.996 249.158 144.788 249.418 144.536 249.63C144.284 249.842 143.992 250.002 143.678 250.102C143.364 250.201 143.033 250.238 142.705 250.21C138.468 249.89 134.317 248.855 130.425 247.15C132.224 249.959 134.374 252.527 136.825 254.79C138.408 256.258 140.107 257.596 141.905 258.79C142.352 259.088 142.691 259.521 142.872 260.027C143.053 260.532 143.066 261.082 142.91 261.596C142.754 262.11 142.437 262.56 142.006 262.879C141.575 263.198 141.052 263.371 140.515 263.37L140.525 263.4Z" fill="white"/>
<path d="M108.025 254.4C107.426 254.402 106.846 254.188 106.391 253.798C105.936 253.407 105.636 252.867 105.547 252.274C105.457 251.681 105.583 251.076 105.902 250.569C106.221 250.062 106.712 249.686 107.285 249.51C113.128 247.686 118.356 244.289 122.395 239.69C120.47 225.181 120.185 210.502 121.545 195.93C121.617 195.267 121.949 194.659 122.468 194.241C122.988 193.823 123.652 193.628 124.315 193.7C124.978 193.772 125.585 194.104 126.004 194.623C126.422 195.143 126.617 195.807 126.545 196.47C126.545 196.69 124.225 218.47 127.545 240.02C127.645 240.663 127.491 241.319 127.115 241.85C122.42 247.759 116.037 252.098 108.815 254.29C108.559 254.369 108.293 254.406 108.025 254.4Z" fill="white"/>
<path d="M182.635 144.4C178.335 172.2 156.635 186.6 128.835 182.3C101.035 178 81.635 166.5 79.135 138.5C76.025 104.4 112.235 81.9 140.025 86.2C146.645 87.2231 152.998 89.5402 158.722 93.0189C164.446 96.4975 169.428 101.07 173.385 106.474C177.342 111.879 180.195 118.01 181.782 124.517C183.369 131.024 183.659 137.781 182.635 144.4Z" fill="#FF8C00"/>
<path d="M138.375 184.35C135.113 184.343 131.857 184.085 128.635 183.58C96.275 178.58 80.135 164.29 77.845 138.58C76.555 124.39 81.925 110.87 92.965 100.5C105.695 88.5 124.245 82.42 140.225 84.89C147.013 85.9363 153.528 88.3101 159.397 91.8759C165.267 95.4418 170.376 100.13 174.433 105.671C178.49 111.213 181.414 117.5 183.04 124.173C184.665 130.846 184.959 137.773 183.905 144.56C181.755 158.44 175.315 169.46 165.275 176.41C157.735 181.67 148.565 184.35 138.375 184.35ZM133.025 87C119.565 87 105.155 92.7 94.765 102.45C84.375 112.2 79.225 125.04 80.445 138.45C82.585 162.68 98.025 176.23 129.025 181C156.685 185.28 177.235 170.83 181.355 144.18C182.353 137.731 182.071 131.148 180.525 124.807C178.979 118.467 176.198 112.493 172.342 107.228C168.487 101.962 163.631 97.5081 158.053 94.1197C152.476 90.7314 146.285 88.4752 139.835 87.4801C137.581 87.1469 135.304 86.9865 133.025 87Z" fill="#323643"/>
<path d="M123.635 84C119.911 78.109 117.963 71.2694 118.025 64.3C118.225 51 126.025 38.8 142.925 37C159.825 35.2 174.625 45.8 177.325 60.8C178.225 65.6 169.525 74.9 172.325 88.3C175.025 93.1 184.325 105.4 188.225 118.5C194.125 138.2 194.725 158.6 168.025 175.2" fill="#FF8C00"/>
<path d="M157.335 46.4C143.835 37.9 131.135 46 134.835 59.8C136.035 64.1 138.335 66.9 142.035 67.7C148.035 80 163.435 79.7 168.035 82.9C175.235 66.2 178.535 58.3 170.835 47.1C165.235 38.9 153.235 37.8 157.335 46.4Z" fill="white"/>
<path d="M136.335 50.4C136.152 50.3994 135.972 50.353 135.811 50.265C135.65 50.1771 135.514 50.0503 135.414 49.8963C135.315 49.7424 135.256 49.566 135.242 49.3832C135.228 49.2005 135.26 49.0172 135.335 48.85C135.455 48.59 138.335 42.42 146.805 42.2C147.097 42.192 147.38 42.3003 147.592 42.501C147.803 42.7016 147.927 42.9783 147.935 43.27C147.943 43.5617 147.835 43.8447 147.634 44.0566C147.433 44.2685 147.157 44.392 146.865 44.4C139.795 44.58 137.435 49.54 137.335 49.76C137.247 49.9511 137.106 50.1131 136.929 50.2265C136.751 50.3399 136.545 50.4001 136.335 50.4Z" fill="#323643"/>
<path d="M169.935 91.2C170.235 109.1 157.235 125.4 153.935 138.2C148.635 158.7 158.635 164.3 160.735 177.1C160.735 177.1 186.935 173.8 190.935 145.7C194.435 121.3 184.435 110.2 183.235 107.7C182.035 105.2 175.335 102.1 169.935 91.2Z" fill="white"/>
<path d="M155.635 162.5C155.635 162.5 188.135 163.4 190.835 128C190.835 128 197.335 171.6 158.335 178.1L155.635 162.5Z" fill="#E1E1E1"/>
<path d="M158.535 41.79C158.299 41.796 158.067 41.7258 157.874 41.5899C157.681 41.4539 157.536 41.2594 157.462 41.035C157.388 40.8107 157.388 40.5685 157.463 40.3443C157.537 40.12 157.682 39.9257 157.875 39.79C159.071 39.015 160.459 38.5878 161.884 38.556C163.309 38.5242 164.715 38.8891 165.945 39.61C166.166 39.7616 166.324 39.9885 166.389 40.2483C166.454 40.508 166.423 40.7826 166.3 41.0206C166.177 41.2587 165.972 41.4438 165.722 41.5412C165.473 41.6387 165.197 41.6418 164.945 41.55C164.08 41.0247 163.087 40.7469 162.075 40.7469C161.063 40.7469 160.07 41.0247 159.205 41.55C159.014 41.702 158.779 41.7864 158.535 41.79Z" fill="#323643"/>
<path d="M170.735 52.1C170.035 54.4 167.835 55.5 165.935 54.6C164.95 54.0341 164.181 53.1582 163.747 52.1089C163.313 51.0596 163.238 49.8961 163.535 48.8C164.235 46.5 166.435 45.4 168.335 46.3C169.351 46.833 170.147 47.7054 170.586 48.7652C171.024 49.8251 171.077 51.0052 170.735 52.1Z" fill="#323643"/>
<path d="M170.545 49.18C170.668 48.8457 170.688 48.4827 170.605 48.1367C170.521 47.7907 170.336 47.4773 170.074 47.2361C169.813 46.9949 169.485 46.8368 169.133 46.7818C168.782 46.7267 168.422 46.7772 168.099 46.9268C167.775 47.0765 167.504 47.3185 167.319 47.6224C167.133 47.9263 167.042 48.2783 167.057 48.634C167.071 48.9897 167.191 49.3331 167.401 49.6207C167.61 49.9083 167.901 50.1273 168.235 50.25C168.457 50.3314 168.693 50.3683 168.929 50.3586C169.165 50.3489 169.397 50.2928 169.612 50.1934C169.826 50.0941 170.019 49.9534 170.179 49.7795C170.339 49.6056 170.464 49.4019 170.545 49.18Z" fill="white"/>
<path d="M153.535 181.63C153.226 181.635 152.927 181.524 152.696 181.318C152.466 181.113 152.321 180.828 152.291 180.521C152.261 180.213 152.347 179.906 152.533 179.659C152.719 179.413 152.991 179.245 153.295 179.19C171.145 175.6 178.685 168.07 185.075 157.08C198.545 133.86 183.745 110.8 176.625 99.7201C175.34 97.919 174.222 96.0044 173.285 94L171.715 90.77C171.688 90.7152 171.664 90.6584 171.645 90.6C169.987 85.4656 170.17 79.9135 172.165 74.9001C172.585 73.7901 173.025 72.71 173.455 71.67C175.095 67.67 176.455 64.17 176.015 61.57C174.675 54.23 169.935 47.3601 163.015 42.7301C159.488 40.3335 155.513 38.6747 151.328 37.8533C147.144 37.0319 142.836 37.0648 138.665 37.9501C134.624 38.7803 130.839 40.56 127.623 43.1421C124.406 45.7243 121.85 49.0347 120.165 52.8C116.645 60.72 117.275 69.86 121.905 77.88C124.345 82.36 127.285 91.53 127.415 91.88C127.514 92.1917 127.486 92.5301 127.336 92.8207C127.186 93.1114 126.927 93.3306 126.615 93.43C126.303 93.5295 125.965 93.5011 125.674 93.3511C125.384 93.201 125.164 92.9417 125.065 92.63C125.065 92.54 122.065 83.2901 119.755 79.0501C114.755 70.3601 114.075 60.4 117.915 51.76C119.749 47.6257 122.545 43.9894 126.069 41.1541C129.593 38.3189 133.744 36.3666 138.175 35.46C142.67 34.505 147.312 34.4689 151.821 35.354C156.331 36.239 160.614 38.0269 164.415 40.6101C171.875 45.6101 176.985 53.06 178.415 61.05C179.045 64.36 177.505 68.1501 175.715 72.5401C175.295 73.5401 174.865 74.6301 174.455 75.7201C172.677 80.189 172.5 85.1356 173.955 89.7201L175.545 93C175.568 93.0486 175.588 93.0987 175.605 93.1501C176.484 94.9908 177.518 96.7538 178.695 98.42C186.075 109.91 201.435 133.83 187.205 158.36C180.665 169.62 172.475 177.89 153.785 181.65L153.535 181.63Z" fill="#323643"/>
<path d="M162.535 49.82C162.421 49.8197 162.309 49.7922 162.207 49.7399C162.106 49.6875 162.018 49.6119 161.952 49.5191C161.885 49.4263 161.842 49.3191 161.825 49.2062C161.808 49.0934 161.819 48.9781 161.855 48.87C162.154 48.0127 162.655 47.2402 163.317 46.6186C163.978 45.997 164.781 45.5446 165.655 45.3C166.492 45.0205 167.386 44.9602 168.253 45.1248C169.119 45.2893 169.929 45.6733 170.605 46.24C170.752 46.362 170.845 46.5375 170.863 46.7278C170.881 46.9182 170.822 47.1078 170.7 47.255C170.578 47.4022 170.403 47.4949 170.212 47.5127C170.022 47.5305 169.832 47.472 169.685 47.35C169.191 46.9382 168.6 46.6603 167.968 46.543C167.335 46.4256 166.684 46.4728 166.075 46.68C165.423 46.8572 164.824 47.19 164.329 47.6498C163.835 48.1097 163.459 48.6829 163.235 49.32C163.188 49.4676 163.094 49.596 162.968 49.686C162.842 49.7761 162.69 49.8231 162.535 49.82Z" fill="#323643"/>
<path d="M152.265 60.7101C153.022 60.1049 153.582 59.289 153.875 58.3654C154.168 57.4419 154.181 56.4522 153.912 55.5214C153.642 54.5907 153.103 53.7606 152.362 53.1363C151.621 52.5119 150.712 52.1212 149.749 52.0136C148.786 51.906 147.813 52.0863 146.952 52.5317C146.092 52.9771 145.383 53.6676 144.914 54.5159C144.446 55.3643 144.24 56.3324 144.322 57.2978C144.404 58.2633 144.771 59.1828 145.375 59.9401C145.777 60.4433 146.274 60.8624 146.837 61.1735C147.401 61.4845 148.021 61.6815 148.66 61.753C149.3 61.8245 149.948 61.7692 150.566 61.5902C151.185 61.4113 151.762 61.1122 152.265 60.7101Z" fill="#323643"/>
<path d="M153.505 55.78C153.846 55.509 154.098 55.1431 154.231 54.7286C154.363 54.3141 154.37 53.8695 154.25 53.4512C154.13 53.0329 153.888 52.6597 153.556 52.3786C153.223 52.0976 152.815 51.9215 152.383 51.8725C151.95 51.8235 151.513 51.9039 151.126 52.1035C150.74 52.303 150.421 52.6128 150.21 52.9937C149.999 53.3745 149.906 53.8093 149.943 54.2429C149.979 54.6766 150.144 55.0897 150.415 55.43C150.779 55.886 151.308 56.1789 151.888 56.2445C152.467 56.3102 153.049 56.1431 153.505 55.78Z" fill="white"/>
<path d="M144.635 55.5201C144.517 55.5179 144.402 55.4869 144.299 55.4298C144.196 55.3727 144.109 55.2913 144.045 55.1926C143.98 55.0939 143.941 54.981 143.931 54.8637C143.921 54.7465 143.939 54.6285 143.985 54.5201C144.435 53.5686 145.112 52.742 145.956 52.1127C146.799 51.4833 147.785 51.0704 148.825 50.9101C149.85 50.7589 150.896 50.8543 151.877 51.1882C152.858 51.5221 153.745 52.0849 154.465 52.8301C154.598 52.9706 154.669 53.1581 154.663 53.3513C154.658 53.5444 154.576 53.7274 154.435 53.8601C154.294 53.9927 154.107 54.064 153.914 54.0584C153.721 54.0528 153.538 53.9706 153.405 53.8301C152.844 53.247 152.15 52.8086 151.383 52.5527C150.615 52.2968 149.797 52.2309 148.999 52.3607C148.2 52.4905 147.445 52.8121 146.798 53.298C146.152 53.7838 145.632 54.4194 145.285 55.1501C145.221 55.2654 145.126 55.3608 145.012 55.4261C144.897 55.4913 144.767 55.5238 144.635 55.5201Z" fill="#323643"/>
<path d="M142.635 39C140.935 36.8 138.135 34.5 137.535 27C136.035 32.4 136.035 36.8 137.935 39.7" fill="#FF8C00"/>
<path d="M137.935 40.82C137.748 40.8201 137.564 40.7735 137.4 40.6844C137.236 40.5953 137.097 40.4666 136.995 40.31C134.995 37.23 134.795 32.65 136.455 26.7C136.523 26.4434 136.68 26.2194 136.898 26.0677C137.115 25.9161 137.38 25.8467 137.644 25.8719C137.908 25.8971 138.155 26.0153 138.34 26.2054C138.525 26.3955 138.637 26.6452 138.655 26.91C139.145 33.05 141.155 35.45 142.765 37.38C143.035 37.7 143.295 38.01 143.525 38.32C143.622 38.4355 143.695 38.5694 143.738 38.7136C143.782 38.8579 143.797 39.0095 143.781 39.1595C143.765 39.3094 143.718 39.4546 143.645 39.5862C143.571 39.7178 143.472 39.8333 143.353 39.9256C143.233 40.0179 143.097 40.0851 142.951 40.1233C142.805 40.1615 142.653 40.1699 142.504 40.1479C142.354 40.1259 142.211 40.074 142.083 39.9953C141.954 39.9166 141.843 39.8128 141.755 39.69C141.535 39.4 141.295 39.12 141.045 38.82C139.527 37.1459 138.355 35.1884 137.595 33.06C137.378 35.1449 137.826 37.2452 138.875 39.06C138.985 39.2291 139.047 39.4247 139.055 39.6262C139.063 39.8276 139.016 40.0275 138.92 40.2047C138.824 40.3819 138.681 40.5297 138.508 40.6328C138.335 40.7358 138.137 40.7901 137.935 40.79V40.82Z" fill="#323643"/>
<path d="M158.135 66.5C158.135 66.5 161.535 73.4 168.235 72C174.935 70.6 247.335 59.3 247.335 59.3" fill="white"/>
<path d="M166.495 73.4199C161.495 73.4199 158.195 69.4199 157.025 67.0499C156.924 66.7632 156.932 66.449 157.049 66.1682C157.166 65.8873 157.382 65.6596 157.657 65.5291C157.932 65.3986 158.245 65.3745 158.536 65.4614C158.828 65.5484 159.077 65.7402 159.235 65.9999C159.365 66.2499 162.315 71.9999 167.975 70.8399C174.625 69.4499 244.185 58.5899 247.135 58.1299C247.459 58.0796 247.789 58.1598 248.053 58.3529C248.318 58.5461 248.495 58.8364 248.545 59.1599C248.595 59.4835 248.515 59.8138 248.322 60.0783C248.129 60.3427 247.839 60.5196 247.515 60.5699C246.795 60.6799 175.065 71.8799 168.515 73.2599C167.849 73.3837 167.172 73.4374 166.495 73.4199Z" fill="#323643"/>
<path d="M162.935 51.3C162.935 51.3 164.735 55.5 170.935 56.1C175.535 56.5 242.635 56.5001 246.835 56.4001C250.435 56.3001 250.935 59 247.235 59.3C243.335 59.7 167.935 67.9001 167.935 67.9001C158.635 69.4001 154.435 67.5 154.435 67.5" fill="white"/>
<path d="M161.255 69.7101C156.405 69.7101 154.065 68.7101 153.925 68.6201C153.627 68.4875 153.393 68.2417 153.276 67.937C153.159 67.6323 153.167 67.2934 153.3 66.9951C153.433 66.6967 153.678 66.4632 153.983 66.346C154.288 66.2288 154.627 66.2375 154.925 66.3701C154.925 66.3701 158.995 68.0801 167.715 66.6801C168.535 66.5901 243.225 58.4701 247.085 58.0701C247.485 58.0458 247.88 57.9616 248.255 57.8201C247.803 57.662 247.323 57.5973 246.845 57.6301C242.995 57.7201 175.515 57.7301 170.845 57.3301C163.985 56.6701 161.905 51.9901 161.845 51.7901C161.712 51.489 161.705 51.1477 161.824 50.841C161.943 50.5344 162.179 50.2877 162.48 50.1551C162.781 50.0224 163.122 50.0149 163.429 50.1339C163.736 50.253 163.982 50.489 164.115 50.7901C164.185 50.9401 165.775 54.3401 171.115 54.8601C175.775 55.2601 243.025 55.2501 246.865 55.1501C249.655 55.0901 251.005 56.4201 251.075 57.7001C251.145 58.9801 250.215 60.2801 247.395 60.5101C243.565 60.9001 168.885 69.0301 168.125 69.1101C165.855 69.4944 163.557 69.695 161.255 69.7101Z" fill="#323643"/>
<path d="M158.435 45.7C153.035 38.2 152.935 23.6 163.035 20.2C151.735 22.6 148.135 34.6 149.135 39.2" fill="#FF8C00"/>
<path d="M158.435 46.82C158.257 46.8197 158.081 46.7769 157.923 46.6951C157.765 46.6134 157.628 46.4951 157.525 46.35C155.685 43.6509 154.463 40.5796 153.944 37.3545C153.426 34.1295 153.624 30.8298 154.525 27.69C154.767 26.9247 155.068 26.1792 155.425 25.46C154.503 26.3667 153.685 27.3729 152.985 28.46C150.515 32.28 149.695 36.72 150.185 38.96C150.216 39.1038 150.219 39.2524 150.193 39.3973C150.168 39.5422 150.113 39.6806 150.034 39.8046C149.955 39.9286 149.852 40.0357 149.731 40.1198C149.61 40.204 149.474 40.2635 149.33 40.295C149.186 40.3265 149.038 40.3294 148.893 40.3035C148.748 40.2776 148.609 40.2234 148.485 40.144C148.361 40.0646 148.254 39.9616 148.17 39.8408C148.086 39.72 148.026 39.5838 147.995 39.44C147.415 36.78 148.145 31.83 151.105 27.25C152.402 25.1819 154.102 23.3956 156.104 21.9973C158.105 20.5989 160.367 19.6171 162.755 19.11C163.038 19.0411 163.337 19.0853 163.589 19.2334C163.84 19.3815 164.023 19.6218 164.1 19.9031C164.177 20.1845 164.141 20.4847 164 20.7399C163.859 20.9952 163.624 21.1854 163.345 21.27C161.74 21.8293 160.294 22.7677 159.129 24.0055C157.964 25.2433 157.116 26.744 156.655 28.38C155.879 31.1805 155.718 34.1156 156.182 36.9843C156.646 39.8529 157.725 42.5873 159.345 45C159.467 45.1674 159.54 45.3654 159.557 45.5719C159.573 45.7784 159.532 45.9854 159.437 46.1699C159.343 46.3543 159.199 46.509 159.022 46.6167C158.845 46.7244 158.642 46.781 158.435 46.78V46.82Z" fill="#323643"/>
<path d="M149.235 40.1C146.435 35.2 144.435 26.5 147.535 18.5C142.735 26.4 141.235 32.5 142.535 38.7" fill="#FF8C00"/>
<path d="M149.235 41.2199C149.033 41.2253 148.834 41.1761 148.658 41.0775C148.482 40.979 148.336 40.8347 148.235 40.6599C145.842 36.2339 144.675 31.2485 144.855 26.2199C143.213 30.0873 142.777 34.3607 143.605 38.4799C143.643 38.6265 143.65 38.7791 143.627 38.9286C143.604 39.0781 143.551 39.2214 143.471 39.3499C143.392 39.4784 143.286 39.5893 143.163 39.6761C143.039 39.7629 142.898 39.8236 142.75 39.8547C142.602 39.8858 142.45 39.8866 142.301 39.857C142.153 39.8274 142.012 39.7681 141.887 39.6826C141.762 39.5972 141.656 39.4873 141.575 39.3596C141.494 39.232 141.439 39.0892 141.415 38.9399C140.045 32.3999 141.585 26.1099 146.555 17.9399C146.698 17.6925 146.929 17.509 147.203 17.4267C147.476 17.3445 147.771 17.3698 148.026 17.4975C148.282 17.6252 148.479 17.8457 148.577 18.1138C148.675 18.3819 148.667 18.6774 148.555 18.9399C147.361 22.3017 146.89 25.8773 147.171 29.4336C147.451 32.99 148.479 36.4472 150.185 39.5799C150.285 39.7524 150.337 39.9484 150.335 40.1476C150.334 40.3468 150.28 40.542 150.178 40.7132C150.076 40.8844 149.93 41.0253 149.756 41.1214C149.581 41.2175 149.384 41.2653 149.185 41.2599L149.235 41.2199Z" fill="#323643"/>
<path d="M156.735 178.8C153.435 194.8 137.735 210.7 125.635 201.3C107.635 206.3 95.735 183.5 99.035 167.5C100.205 161.734 103.059 156.444 107.235 152.3" fill="#FF8C00"/>
<path d="M157.135 173.4C157.135 190.1 141.935 209.9 125.035 201C107.035 206 88.135 185.9 98.535 162.9C99.835 189 149.935 183.8 157.135 173.4Z" fill="#DD6E09"/>
<path d="M132.365 204.86C129.504 204.88 126.688 204.153 124.195 202.75C120.758 203.579 117.166 203.509 113.764 202.546C110.362 201.582 107.266 199.758 104.775 197.25C97.115 189.98 93.145 177.25 95.325 166.97C96.6503 160.854 99.7864 155.279 104.325 150.97C104.628 150.723 105.013 150.6 105.403 150.624C105.792 150.649 106.159 150.82 106.428 151.103C106.697 151.386 106.849 151.761 106.855 152.151C106.86 152.542 106.717 152.92 106.455 153.21C102.348 157.083 99.504 162.105 98.295 167.62C96.295 176.91 99.915 188.43 106.845 195.01C110.285 198.28 116.045 201.73 123.985 199.6L124.635 199.43L125.205 199.79C129.405 202.42 134.665 202.46 140.015 199.92C148.015 196.1 154.015 187.65 155.155 178.41C155.693 174.486 155.506 170.497 154.605 166.64C154.49 166.242 154.537 165.815 154.737 165.452C154.936 165.089 155.272 164.82 155.67 164.705C156.068 164.59 156.495 164.637 156.858 164.837C157.221 165.037 157.49 165.372 157.605 165.77C158.636 170.024 158.857 174.434 158.255 178.77C156.975 189.04 150.345 198.43 141.375 202.69C138.57 204.073 135.492 204.814 132.365 204.86Z" fill="#323643"/>
<path d="M130.435 105.5C126.435 106.9 121.335 105.8 119.135 108.4C115.835 116.1 107.135 131.1 94.935 141.9C81.435 149.8 71.935 143.9 78.235 138.7C67.135 144 54.335 140.8 62.535 132.1C47.635 141.5 33.335 131.3 46.635 127.2C59.935 123.1 77.935 106.9 83.435 95.1C88.935 83.3 94.935 86.3 103.435 91.1C112.935 96.4 122.535 97 127.335 93.2C124.235 95.2 124.235 104.1 130.435 105.5Z" fill="white"/>
<path d="M83.085 146.5C79.005 146.5 75.585 145.36 74.265 143.34C73.8585 142.712 73.672 141.966 73.735 141.22C66.155 143.92 61.055 142.59 59.205 139.72C58.8182 139.121 58.5661 138.445 58.4659 137.739C58.3658 137.033 58.4201 136.313 58.625 135.63C52.145 138.23 45.925 137.74 42.505 135.54C40.735 134.39 39.835 132.82 40.025 131.22C40.215 129.62 41.455 127.66 46.135 126.22C58.745 122.33 76.595 106.76 82.135 94.78C84.405 89.91 86.865 87.19 89.885 86.22C94.275 84.81 99.145 87.56 103.885 90.22C113.025 95.32 122.455 96.28 126.315 92.51C126.55 92.2806 126.866 92.1538 127.194 92.1576C127.522 92.1613 127.836 92.2953 128.065 92.53C128.294 92.7648 128.421 93.081 128.417 93.4092C128.414 93.7374 128.28 94.0506 128.045 94.28C123.345 98.87 112.915 98.09 102.685 92.37C97.455 89.37 93.805 87.56 90.685 88.57C88.395 89.3 86.345 91.67 84.415 95.82C78.635 108.3 60.025 124.53 46.895 128.58C43.825 129.53 42.615 130.74 42.505 131.58C42.395 132.42 43.405 133.2 43.845 133.48C46.605 135.26 53.915 136.24 61.775 131.28C61.9063 131.185 62.055 131.118 62.2125 131.081C62.37 131.044 62.5333 131.038 62.693 131.064C62.8527 131.09 63.0057 131.147 63.1433 131.232C63.2809 131.317 63.4004 131.429 63.495 131.56C63.5895 131.691 63.6573 131.84 63.6944 131.998C63.7315 132.155 63.7372 132.318 63.7112 132.478C63.6852 132.638 63.628 132.791 63.5429 132.928C63.4577 133.066 63.3463 133.185 63.215 133.28C61.135 135 60.375 137.01 61.275 138.41C62.545 140.41 67.705 141.72 76.685 137.32C76.9674 137.156 77.3036 137.11 77.6196 137.194C77.9356 137.277 78.2056 137.483 78.37 137.765C78.5344 138.047 78.5799 138.384 78.4965 138.7C78.413 139.016 78.2074 139.286 77.925 139.45C77.085 140.03 75.755 141.14 76.325 142.03C77.705 144.15 86.525 145.69 94.175 141.03C106.045 133.74 114.595 114.81 116.175 111.1C118.885 104.97 122.295 105.1 125.595 105.23C126.97 105.347 128.354 105.263 129.705 104.98C130.022 104.9 130.357 104.95 130.638 105.118C130.918 105.286 131.12 105.558 131.2 105.875C131.28 106.192 131.23 106.528 131.062 106.808C130.894 107.088 130.622 107.29 130.305 107.37C128.726 107.712 127.105 107.82 125.495 107.69C122.495 107.57 120.495 107.49 118.435 112.07C116.125 117.45 107.635 135.63 95.435 143.12C91.6951 145.332 87.43 146.499 83.085 146.5Z" fill="#323643"/>
<path d="M82.835 114.73C82.5843 114.733 82.3388 114.659 82.1313 114.518C81.9237 114.378 81.7641 114.177 81.6738 113.943C81.5836 113.709 81.5669 113.453 81.6261 113.21C81.6853 112.966 81.8175 112.746 82.005 112.58C84.295 110.5 86.295 107.33 88.065 104.53C90.745 100.29 92.865 96.94 95.495 98.3C107.855 105 116.135 105.71 130.045 104.76C130.207 104.749 130.369 104.77 130.522 104.821C130.676 104.873 130.818 104.954 130.94 105.06C131.062 105.166 131.162 105.296 131.234 105.441C131.306 105.586 131.349 105.743 131.36 105.905C131.371 106.066 131.35 106.229 131.299 106.382C131.247 106.536 131.166 106.677 131.06 106.8C130.954 106.922 130.824 107.022 130.679 107.094C130.534 107.166 130.377 107.209 130.215 107.22C115.815 108.22 107.215 107.45 94.345 100.47C93.545 100.47 91.425 103.83 90.155 105.84C88.305 108.77 86.155 112.1 83.665 114.4C83.4395 114.61 83.1432 114.728 82.835 114.73Z" fill="#323643"/>
<path d="M62.435 133.33C62.1526 133.344 61.8739 133.261 61.6457 133.094C61.4175 132.927 61.2539 132.687 61.1823 132.413C61.1106 132.14 61.1355 131.85 61.2525 131.592C61.3696 131.335 61.5718 131.126 61.825 131C64.5631 129.343 67.0914 127.362 69.355 125.1C69.5871 124.868 69.9018 124.738 70.23 124.738C70.5582 124.738 70.8729 124.868 71.105 125.1C71.3371 125.332 71.4674 125.647 71.4674 125.975C71.4674 126.303 71.3371 126.618 71.105 126.85C68.6853 129.275 65.9747 131.391 63.035 133.15C62.8541 133.261 62.6473 133.323 62.435 133.33Z" fill="#323643"/>
<path d="M76.435 139.93C76.1554 139.937 75.8817 139.848 75.6592 139.679C75.4367 139.509 75.2786 139.269 75.211 138.997C75.1435 138.726 75.1705 138.44 75.2875 138.186C75.4046 137.932 75.6048 137.725 75.855 137.6C78.9639 135.955 81.7979 133.837 84.255 131.32C84.4871 131.085 84.8029 130.952 85.1329 130.95C85.463 130.949 85.7803 131.078 86.015 131.31C86.2497 131.542 86.3826 131.858 86.3845 132.188C86.3864 132.518 86.2571 132.835 86.025 133.07C83.3873 135.758 80.3518 138.025 77.025 139.79C76.8433 139.886 76.6403 139.934 76.435 139.93Z" fill="#323643"/>
<path d="M141.935 17.4L139.025 13.7C139.025 13.7 138.125 17 132.525 21.6C128.008 25.088 123.189 28.1668 118.125 30.7999C118.325 31.0999 118.525 31.5 118.725 31.7999C119.384 32.8324 119.985 33.9007 120.525 35C123.045 33.6815 125.482 32.2122 127.825 30.6C143.535 20 141.935 17.4 141.935 17.4Z" fill="#FECC0A"/>
<path d="M112.835 34.7C112.635 34.3 112.335 34 112.135 33.6C112.035 33.6 111.935 33.7 111.835 33.7C109.238 34.6181 106.559 35.2877 103.835 35.7L106.235 38.7C106.235 38.7 108.635 39.8 114.535 37.7C114.045 36.6585 113.477 35.6556 112.835 34.7Z" fill="#FECC0A"/>
<path d="M123.335 15.9C122.002 16.5 120.602 17.2 119.135 18C108.735 23.3 102.335 31.9 102.435 33.9L103.035 35.1L107.335 35.6L108.635 32.5C108.635 32.5 115.835 26 121.335 22.1C122.674 21.141 124.116 20.3359 125.635 19.7C124.738 18.5167 123.968 17.2431 123.335 15.9Z" fill="#FECC0A"/>
<path d="M137.535 11.7C136.235 10.9 133.535 11.4 129.235 13.1C129.935 14.5437 130.772 15.9167 131.735 17.2C131.735 17.2265 131.746 17.2519 131.764 17.2707C131.783 17.2894 131.808 17.3 131.835 17.3C135.335 16.2 138.035 15.6 138.035 15.6C138.035 15.6 139.635 13.1 137.535 11.7Z" fill="#FECC0A"/>
<path d="M108.025 39.85C106.415 39.85 105.205 39.43 104.585 38.49L101.765 35L101.685 34.89C101.487 34.5466 101.361 34.1665 101.314 33.7728C101.268 33.3791 101.302 32.98 101.415 32.6C102.295 28.99 108.685 23.09 117.315 17.91C125.205 13.08 133.135 10.13 137.045 10.57C138.565 10.74 141.045 14.25 141.565 14.97C142.845 16.82 142.975 17.55 142.775 18.11C141.445 21.75 135.235 27.37 126.955 32.42C120.085 36.64 112.525 39.85 108.025 39.85ZM103.325 33.85L106.165 37.28L106.245 37.39C107.075 38.75 114.555 37.66 125.875 30.76C133.395 26.17 139.465 20.83 140.785 17.66C139.759 15.7516 138.405 14.0388 136.785 12.6C133.935 12.31 126.985 14.38 118.365 19.66C109.365 25.07 104.005 30.52 103.365 33.11C103.291 33.3442 103.291 33.5957 103.365 33.83L103.325 33.85Z" fill="#323643"/>
<path d="M105.635 38.9C105.461 38.9 105.291 38.8548 105.14 38.7689C104.989 38.683 104.863 38.5593 104.775 38.41C101.925 33.67 117.025 24.11 120.115 22.25C126.555 18.33 132.655 15.65 136.865 14.92C139.755 14.42 141.585 14.82 142.315 16.12C142.448 16.3521 142.483 16.6273 142.412 16.8852C142.342 17.143 142.172 17.3624 141.94 17.495C141.708 17.6276 141.433 17.6626 141.175 17.5923C140.917 17.5219 140.698 17.3521 140.565 17.12C140.455 16.92 139.635 16.5 137.215 16.92C133.305 17.6 127.305 20.25 121.165 23.99C109.395 31.12 105.805 36.24 106.485 37.39C106.575 37.5418 106.623 37.7148 106.625 37.8913C106.626 38.0678 106.581 38.2415 106.494 38.3949C106.406 38.5483 106.28 38.6758 106.127 38.7645C105.975 38.8532 105.801 38.9 105.625 38.9H105.635Z" fill="#323643"/>
<path d="M107.635 35.1H107.405C107.274 35.096 107.144 35.0663 107.025 35.0124C106.905 34.9585 106.797 34.8815 106.707 34.7859C106.617 34.6902 106.546 34.5778 106.5 34.4549C106.453 34.3321 106.431 34.2013 106.435 34.07C106.439 33.9386 106.469 33.8094 106.523 33.6896C106.577 33.5697 106.653 33.4617 106.749 33.3716C106.845 33.2816 106.957 33.2112 107.08 33.1646C107.203 33.118 107.334 33.096 107.465 33.1C110.855 33.2 117.465 30.6 124.015 26.65C130.255 22.87 135.415 18.42 137.165 15.31C137.298 15.0792 137.516 14.9106 137.773 14.8412C138.03 14.7718 138.304 14.8074 138.535 14.94C138.766 15.0726 138.934 15.2914 139.004 15.5483C139.073 15.8053 139.038 16.0792 138.905 16.31C136.975 19.72 131.665 24.35 125.025 28.35C118.275 32.48 111.485 35.1 107.635 35.1Z" fill="#323643"/>
<path d="M100.835 40.1L94.235 42.8L97.635 36.5L100.835 40.1Z" fill="#FECC0A"/>
<path d="M142.335 9.50005L149.435 8.30005L144.735 13.7L142.335 9.50005Z" fill="#FECC0A"/>
<path d="M134.435 5.9L138.435 0L139.135 7.1L134.435 5.9Z" fill="#FECC0A"/>
<path d="M97.435 31.2999L91.735 27L98.835 26.7L97.435 31.2999Z" fill="#FECC0A"/>
<path d="M101.135 22.2L98.235 15.7L104.635 18.9L101.135 22.2Z" fill="#FECC0A"/>
<path d="M123.135 8.00002L123.435 0.900024L127.735 6.60002L123.135 8.00002Z" fill="#FECC0A"/>
<path d="M111.435 13.7L109.835 6.69995L115.535 11.1L111.435 13.7Z" fill="#FECC0A"/>
<path d="M137.135 254.4C136.762 254.392 136.406 254.246 136.135 253.99C134.056 252.001 132.165 249.825 130.485 247.49C130.31 247.155 130.269 246.766 130.368 246.401C130.468 246.036 130.702 245.723 131.023 245.523C131.344 245.323 131.729 245.252 132.1 245.324C132.471 245.396 132.801 245.605 133.025 245.91C134.565 248.024 136.288 249.999 138.175 251.81C138.391 252.014 138.542 252.279 138.608 252.569C138.674 252.859 138.651 253.163 138.544 253.441C138.437 253.718 138.249 253.958 138.006 254.129C137.762 254.3 137.473 254.394 137.175 254.4H137.135Z" fill="#323643"/>
<path d="M170.935 247.3C170.607 247.302 170.287 247.197 170.025 247L169.155 246.4C166.155 244.34 163.655 242.54 162.735 241.4C162.597 241.251 162.49 241.075 162.422 240.883C162.354 240.691 162.326 240.488 162.339 240.285C162.352 240.082 162.406 239.884 162.498 239.702C162.59 239.521 162.718 239.36 162.874 239.23C163.031 239.099 163.212 239.002 163.407 238.944C163.602 238.886 163.806 238.868 164.008 238.891C164.211 238.914 164.406 238.979 164.582 239.08C164.759 239.181 164.913 239.317 165.035 239.48C166.868 241.093 168.817 242.571 170.865 243.9L171.745 244.51C172.007 244.693 172.204 244.954 172.306 245.257C172.409 245.559 172.413 245.886 172.317 246.191C172.221 246.495 172.031 246.761 171.773 246.95C171.515 247.139 171.204 247.24 170.885 247.24L170.935 247.3Z" fill="#323643"/>
</svg>
