<svg width="291" height="267" viewBox="0 0 291 267" fill="none" xmlns="http://www.w3.org/2000/svg">
<g clip-path="url(#clip0)">
<path d="M147.69 157.68C146.795 157.682 145.926 157.383 145.221 156.833C144.516 156.282 144.015 155.511 143.8 154.643C143.585 153.775 143.667 152.859 144.033 152.043C144.399 151.226 145.028 150.557 145.82 150.14C154.1 145.78 176.19 131.92 178.88 120.28C180.41 113.68 171.88 104.03 163.76 100.44C160.21 98.83 157.42 98.87 156.4 99.29C155.434 99.6141 154.382 99.5578 153.456 99.1324C152.531 98.707 151.803 97.9446 151.42 97.0008C151.037 96.057 151.029 95.0027 151.397 94.053C151.765 93.1033 152.481 92.3297 153.4 91.89C156.99 90.42 162.1 90.89 167.07 93.15C177.07 97.58 189.49 110.15 186.71 122.09C184.96 129.68 178.07 137.95 166.25 146.66C160.94 150.558 155.371 154.09 149.58 157.23C148.997 157.533 148.347 157.688 147.69 157.68Z" fill="#323643"/>
<path d="M148.38 155L146.98 152.34C147.29 152.18 177.81 135.98 181.32 120.83C183.32 112.2 173.03 101.83 164.77 98.1399L166 95.4099C175 99.4099 186.69 111 184.25 121.52C180.44 138 149.69 154.32 148.38 155Z" fill="#FB7D08"/>
<path d="M119.49 264.18C172.01 264.18 214.59 258.63 214.59 251.78C214.59 244.93 172.01 239.38 119.49 239.38C66.97 239.38 24.39 244.93 24.39 251.78C24.39 258.63 67 264.18 119.49 264.18Z" fill="#E1E1E1"/>
<path d="M92.69 50.78C92.69 50.78 87.09 44.38 73.09 46.78C75.79 54.38 82.59 58.68 87.49 55.88" fill="#FF8C00"/>
<path d="M84.23 57.65C83.1633 57.6398 82.1068 57.44 81.11 57.06C77.32 55.65 73.91 51.83 72.23 47.06C72.1859 46.9354 72.1694 46.8026 72.1818 46.6709C72.1942 46.5393 72.2351 46.4119 72.3018 46.2977C72.3684 46.1835 72.4591 46.0852 72.5676 46.0096C72.6761 45.934 72.7998 45.8829 72.93 45.86C87.26 43.4 93.13 49.86 93.37 50.16C93.5318 50.3417 93.6148 50.5802 93.6007 50.823C93.5866 51.0659 93.4767 51.2932 93.295 51.455C93.1133 51.6168 92.8748 51.6998 92.632 51.6857C92.3891 51.6716 92.1618 51.5617 92 51.38C91.95 51.32 86.8 45.73 74.34 47.5C75.94 51.27 78.71 54.23 81.74 55.36C82.5812 55.7108 83.4904 55.8687 84.4006 55.822C85.3109 55.7752 86.1991 55.5251 87 55.09C87.104 55.0248 87.2201 54.9812 87.3414 54.962C87.4626 54.9428 87.5865 54.9484 87.7056 54.9783C87.8246 55.0082 87.9364 55.062 88.0341 55.1362C88.1319 55.2105 88.2136 55.3038 88.2744 55.4104C88.3351 55.5171 88.3737 55.635 88.3877 55.7569C88.4017 55.8789 88.3909 56.0024 88.3559 56.1201C88.321 56.2378 88.2625 56.3472 88.1842 56.4417C88.1058 56.5362 88.0092 56.6138 87.9 56.67C86.7828 57.3104 85.5178 57.6482 84.23 57.65Z" fill="#323643"/>
<path d="M90.09 52C88.6195 50.8825 86.8362 50.2531 84.99 50.2L90.09 52Z" fill="#D99541"/>
<path d="M90.09 52.93C89.8503 52.9272 89.6197 52.8385 89.44 52.68C88.1181 51.7236 86.5407 51.1839 84.91 51.13C84.7567 51.1647 84.5974 51.1628 84.4449 51.1244C84.2925 51.086 84.1513 51.0122 84.0328 50.909C83.9142 50.8059 83.8216 50.6762 83.7625 50.5305C83.7035 50.3849 83.6795 50.2274 83.6927 50.0707C83.7059 49.9141 83.7558 49.7628 83.8384 49.6291C83.9211 49.4954 84.034 49.383 84.1682 49.3011C84.3023 49.2192 84.4539 49.1701 84.6106 49.1578C84.7672 49.1454 84.9246 49.1701 85.07 49.23C87.1288 49.2985 89.1134 50.016 90.74 51.28C90.8598 51.4181 90.9395 51.5863 90.9704 51.7665C91.0013 51.9467 90.9822 52.132 90.9152 52.3021C90.8482 52.4722 90.7358 52.6206 90.5903 52.7314C90.4449 52.8421 90.2718 52.9108 90.09 52.93Z" fill="#323643"/>
<path d="M106.19 41.88C97.79 41.38 90.59 35.48 89.19 16.08C79.49 42.58 94.39 50.08 94.39 50.08" fill="#323643"/>
<path d="M94.39 51.16C94.2161 51.1474 94.0479 51.0924 93.9 51C93.26 50.68 78.25 42.76 88.17 15.66C88.2579 15.4265 88.4238 15.2307 88.6397 15.1058C88.8555 14.9808 89.108 14.9344 89.3542 14.9745C89.6003 15.0145 89.8251 15.1385 89.9902 15.3255C90.1553 15.5124 90.2506 15.7507 90.26 16C91.42 32.12 96.65 40.23 106.26 40.8C106.402 40.8085 106.541 40.8449 106.668 40.9071C106.796 40.9692 106.91 41.0559 107.005 41.1623C107.099 41.2686 107.171 41.3924 107.218 41.5267C107.264 41.661 107.284 41.8031 107.275 41.945C107.266 42.0868 107.23 42.2256 107.168 42.3533C107.106 42.4811 107.019 42.5954 106.913 42.6896C106.806 42.7839 106.683 42.8562 106.548 42.9026C106.414 42.949 106.272 42.9685 106.13 42.96C96.39 42.38 90.64 35.27 88.65 21.27C82.71 42.69 94.74 49 94.87 49.11C95.066 49.2293 95.2188 49.408 95.3064 49.62C95.394 49.8321 95.4118 50.0665 95.3572 50.2894C95.3026 50.5122 95.1785 50.7119 95.0028 50.8594C94.8271 51.007 94.6089 51.0947 94.38 51.11L94.39 51.16Z" fill="#323643"/>
<path d="M76.18 247.2C74.6456 247.18 73.1788 246.566 72.0888 245.486C70.9987 244.406 70.3707 242.945 70.3369 241.411C70.3032 239.876 70.8665 238.389 71.908 237.262C72.9495 236.135 74.3879 235.457 75.9199 235.37L98.62 234.37C99.4137 234.305 100.212 234.4 100.968 234.651C101.724 234.902 102.422 235.302 103.019 235.829C103.617 236.355 104.102 236.997 104.445 237.716C104.789 238.434 104.984 239.214 105.019 240.01C105.054 240.806 104.928 241.6 104.649 242.346C104.37 243.092 103.943 243.773 103.394 244.35C102.845 244.927 102.185 245.388 101.455 245.704C100.724 246.02 99.9363 246.185 99.1399 246.19L76.44 247.19L76.18 247.2Z" fill="#323742"/>
<path d="M76.18 243.78C75.517 243.795 74.8753 243.545 74.3961 243.087C73.917 242.628 73.6396 241.998 73.625 241.335C73.6104 240.672 73.8598 240.03 74.3183 239.551C74.7769 239.072 75.407 238.795 76.07 238.78L98.77 237.78C99.433 237.751 100.081 237.986 100.57 238.434C101.059 238.883 101.351 239.507 101.38 240.17C101.409 240.833 101.174 241.48 100.726 241.97C100.277 242.459 99.653 242.751 98.99 242.78L76.29 243.78H76.18Z" fill="white"/>
<path d="M101.59 261.3C101.152 261.298 100.717 261.247 100.29 261.15C98.7586 260.806 97.4264 259.868 96.5863 258.542C95.7462 257.217 95.467 255.612 95.81 254.08C98.23 243.31 98.07 238.31 98.07 238.26C98.0356 236.719 98.6033 235.226 99.6525 234.098C100.702 232.969 102.149 232.294 103.688 232.216C105.227 232.138 106.736 232.663 107.894 233.679C109.052 234.696 109.768 236.124 109.89 237.66C109.89 238.3 110.15 244.24 107.35 256.66C107.059 257.972 106.331 259.147 105.284 259.99C104.237 260.834 102.934 261.295 101.59 261.3Z" fill="#323742"/>
<path d="M69.89 260.3C68.4807 260.307 67.1151 259.811 66.0388 258.901C64.9625 257.992 64.246 256.728 64.0182 255.337C63.7904 253.946 64.0663 252.52 64.7962 251.314C65.526 250.109 66.6621 249.203 68 248.76C75.15 246.38 86.81 240.49 94.21 236.59C82.81 223.09 77.21 204.26 76.89 203.34C76.447 201.832 76.6212 200.21 77.3742 198.831C78.1271 197.452 79.3972 196.428 80.905 195.985C82.4127 195.542 84.0347 195.716 85.414 196.469C86.7933 197.222 87.817 198.492 88.26 200C88.35 200.3 95.18 222.89 107.8 233.56C108.53 234.182 109.098 234.973 109.455 235.864C109.812 236.754 109.947 237.718 109.849 238.673C109.75 239.627 109.421 240.543 108.89 241.343C108.359 242.142 107.642 242.8 106.8 243.26C105.87 243.78 83.8 255.97 71.7 260C71.1159 260.194 70.5052 260.295 69.89 260.3Z" fill="#323643"/>
<path d="M69.89 256.78C69.3037 256.782 68.7352 256.579 68.2839 256.204C67.8326 255.83 67.5272 255.309 67.4212 254.732C67.3151 254.155 67.4152 253.56 67.7038 253.049C67.9924 252.539 68.4512 252.146 69 251.94C82.39 246.86 102.59 235.94 102.79 235.78C103.37 235.483 104.044 235.424 104.667 235.616C105.29 235.809 105.814 236.237 106.125 236.81C106.437 237.382 106.513 238.054 106.336 238.682C106.16 239.31 105.745 239.844 105.18 240.17C104.34 240.63 84.47 251.41 70.77 256.61C70.4894 256.72 70.1912 256.777 69.89 256.78Z" fill="white"/>
<path d="M104 240.58C103.41 240.58 102.84 240.371 102.39 239.99C87.79 227.65 80.51 203.41 80.21 202.39C80.0769 201.772 80.1831 201.126 80.5074 200.582C80.8316 200.039 81.3497 199.639 81.9573 199.463C82.5648 199.287 83.2166 199.347 83.7812 199.632C84.3458 199.918 84.7814 200.406 85 201C85.07 201.24 92.17 224.83 105.62 236.2C106.012 236.531 106.292 236.974 106.424 237.47C106.555 237.966 106.53 238.49 106.354 238.972C106.177 239.453 105.856 239.869 105.435 240.162C105.014 240.455 104.513 240.611 104 240.61V240.58Z" fill="white"/>
<path d="M101.59 257.88C101.405 257.88 101.221 257.86 101.04 257.82C100.718 257.748 100.414 257.613 100.145 257.423C99.8758 257.233 99.6468 256.992 99.4711 256.713C99.2955 256.434 99.1767 256.123 99.1216 255.799C99.0665 255.474 99.0761 255.141 99.15 254.82C101.74 243.29 101.5 238.16 101.49 238.11C101.453 237.447 101.681 236.796 102.123 236.301C102.566 235.806 103.187 235.507 103.85 235.47C104.513 235.433 105.164 235.661 105.659 236.103C106.154 236.546 106.453 237.167 106.49 237.83C106.49 238.06 106.78 243.72 104.03 255.92C103.907 256.476 103.598 256.973 103.155 257.329C102.711 257.685 102.159 257.88 101.59 257.88Z" fill="white"/>
<path d="M162.39 154.48C164.29 155.98 167.39 159.68 166.79 162.48C165.79 166.48 159.19 160.68 159.19 160.68" fill="#FF8C00"/>
<path d="M165.15 164.93C162.58 164.93 159.21 162.1 158.5 161.47C158.397 161.379 158.313 161.269 158.252 161.146C158.192 161.023 158.156 160.889 158.147 160.752C158.138 160.615 158.156 160.478 158.201 160.348C158.245 160.218 158.314 160.098 158.405 159.995C158.496 159.892 158.606 159.808 158.729 159.747C158.852 159.687 158.986 159.651 159.123 159.642C159.26 159.633 159.397 159.651 159.527 159.696C159.657 159.74 159.777 159.809 159.88 159.9C161.51 161.33 164.33 163.14 165.39 162.81C165.47 162.81 165.65 162.73 165.78 162.23C166.22 160.15 163.72 156.87 161.78 155.31C161.563 155.138 161.422 154.886 161.391 154.61C161.359 154.335 161.438 154.057 161.61 153.84C161.782 153.623 162.034 153.482 162.31 153.451C162.585 153.419 162.863 153.498 163.08 153.67C165.3 155.42 168.56 159.42 167.86 162.67C167.781 163.152 167.571 163.604 167.254 163.976C166.937 164.348 166.524 164.626 166.06 164.78C165.767 164.879 165.459 164.929 165.15 164.93Z" fill="#323643"/>
<path d="M160.29 159.78C162.19 161.28 166.19 165.38 164.99 170.28C163.99 174.28 161.19 169.98 161.19 169.98L152.29 166.18" fill="#D99541"/>
<path d="M163.64 173C162.25 173 161.04 171.55 160.5 170.79L151.88 167.11C151.625 167.001 151.424 166.796 151.321 166.539C151.218 166.282 151.221 165.995 151.33 165.74C151.439 165.485 151.644 165.284 151.901 165.181C152.158 165.078 152.445 165.081 152.7 165.19L161.6 168.99C161.788 169.073 161.948 169.208 162.06 169.38C162.432 170.022 162.971 170.551 163.62 170.91C163.79 170.627 163.918 170.32 164 170C165.17 165.21 160.6 161.31 159.67 160.58C159.562 160.495 159.472 160.389 159.406 160.269C159.339 160.149 159.296 160.017 159.281 159.88C159.265 159.744 159.276 159.605 159.314 159.473C159.351 159.341 159.415 159.218 159.5 159.11C159.585 159.002 159.691 158.912 159.811 158.846C159.931 158.779 160.063 158.736 160.2 158.721C160.336 158.705 160.475 158.716 160.607 158.754C160.739 158.791 160.862 158.855 160.97 158.94C162.08 159.81 167.51 164.47 166.04 170.51C165.67 171.99 164.98 172.82 164.04 172.98L163.64 173Z" fill="#323643"/>
<path d="M146.09 170.78C148.19 174.38 150.79 179.88 151.19 183.18C151.59 186.48 152.89 190.78 151.19 193.88C149.19 197.48 142.19 197.78 137.29 193.98C132.39 190.18 146.09 170.78 146.09 170.78Z" fill="#D99541"/>
<path d="M145.09 198C141.977 197.961 138.961 196.908 136.5 195C133.86 193 134.59 188.16 138.71 180.35C140.608 176.783 142.708 173.327 145 170L146.16 168.36L147.16 170.09C148.9 173.09 151.96 179.09 152.43 182.98C152.51 183.65 152.63 184.35 152.75 185.08C153.26 188.14 153.84 191.6 152.28 194.45C151.748 195.321 151.032 196.065 150.182 196.629C149.332 197.194 148.369 197.567 147.36 197.72C146.614 197.888 145.854 197.982 145.09 198ZM145.97 173.22C138.84 183.74 136.29 191.57 138.08 192.96C139.309 193.928 140.726 194.632 142.24 195.026C143.755 195.42 145.335 195.496 146.88 195.25C147.522 195.163 148.138 194.94 148.687 194.595C149.236 194.25 149.704 193.791 150.06 193.25C151.19 191.19 150.69 188.19 150.25 185.55C150.12 184.78 150 184.03 149.91 183.33C149.6 180.81 147.8 176.64 146 173.22H145.97Z" fill="#503E1A"/>
<path d="M149.19 172.78C150.69 176.38 155.39 178.38 156.39 186.08C156.79 189.08 154.59 192.58 149.29 192.28" fill="#D99541"/>
<path d="M149.93 193.59H149.22C148.878 193.57 148.558 193.415 148.33 193.159C148.102 192.903 147.985 192.567 148.005 192.225C148.025 191.883 148.18 191.563 148.436 191.335C148.692 191.107 149.028 190.99 149.37 191.01C150.222 191.125 151.089 191.048 151.907 190.785C152.725 190.522 153.475 190.08 154.1 189.49C154.491 189.058 154.783 188.547 154.956 187.99C155.129 187.434 155.178 186.847 155.1 186.27C154.653 182.812 153.083 179.597 150.63 177.12C149.553 175.994 148.662 174.705 147.99 173.3C147.857 172.984 147.856 172.629 147.985 172.312C148.114 171.995 148.364 171.743 148.68 171.61C148.996 171.477 149.351 171.476 149.668 171.605C149.985 171.734 150.237 171.984 150.37 172.3C150.947 173.45 151.695 174.505 152.59 175.43C155.378 178.284 157.159 181.971 157.66 185.93C157.789 186.884 157.705 187.855 157.414 188.773C157.124 189.691 156.634 190.533 155.98 191.24C155.196 192.039 154.251 192.662 153.208 193.067C152.165 193.472 151.047 193.65 149.93 193.59Z" fill="#503E1A"/>
<path d="M150.39 171.58C151.89 175.18 155.69 176.78 156.09 178.98C156.185 179.562 156.157 180.157 156.007 180.728C155.858 181.299 155.592 181.832 155.224 182.293C154.857 182.755 154.398 183.134 153.875 183.407C153.352 183.681 152.778 183.842 152.19 183.88" fill="#D99541"/>
<path d="M152.18 185.17C151.853 185.165 151.541 185.036 151.305 184.81C151.07 184.584 150.929 184.276 150.911 183.95C150.893 183.624 151 183.303 151.209 183.053C151.419 182.802 151.716 182.64 152.04 182.6C152.478 182.568 152.904 182.444 153.29 182.236C153.676 182.027 154.014 181.739 154.28 181.39C154.513 181.082 154.681 180.73 154.772 180.355C154.863 179.98 154.876 179.59 154.81 179.21C154.69 178.58 153.81 177.76 152.91 176.89C151.335 175.57 150.063 173.926 149.18 172.07C149.047 171.754 149.046 171.399 149.175 171.082C149.304 170.765 149.554 170.513 149.87 170.38C150.186 170.247 150.541 170.246 150.858 170.375C151.175 170.504 151.427 170.754 151.56 171.07C152.313 172.584 153.376 173.923 154.68 175C155.91 176.17 157.07 177.26 157.34 178.73C157.468 179.458 157.446 180.205 157.274 180.924C157.102 181.643 156.784 182.319 156.34 182.91C155.863 183.538 155.262 184.06 154.573 184.444C153.885 184.827 153.125 185.064 152.34 185.14L152.18 185.17Z" fill="#503E1A"/>
<path d="M47.69 166.88C47.79 186.18 63.49 202.78 82.69 201.58C102.89 200.38 115.89 180.58 115.79 161.28C115.69 141.98 92.19 131.78 82.39 131.78C73.1529 131.893 64.332 135.64 57.8374 142.209C51.3428 148.779 47.6972 157.642 47.69 166.88Z" fill="#FF8C00"/>
<path d="M47.69 166.88C47.79 186.18 63.49 202.78 82.69 201.58C91.39 201.08 106.69 193.08 113.69 180.88C71 157.08 52.39 186.28 47.69 166.88Z" fill="#DD6E09"/>
<path d="M80.73 203.1C72.2606 203.066 64.1262 199.788 58 193.94C54.3027 190.465 51.351 186.273 49.3241 181.622C47.2973 176.97 46.2378 171.954 46.21 166.88C46.2352 157.264 50.0378 148.043 56.798 141.204C63.5582 134.365 72.7348 130.456 82.35 130.32C92.74 130.32 117.12 140.85 117.22 161.32C117.243 171.335 114.007 181.086 108 189.1C101.56 197.5 92.6 202.45 82.77 203.03C82.09 203.077 81.41 203.1 80.73 203.1ZM49.15 166.87C49.1736 171.545 50.1476 176.167 52.0128 180.455C53.878 184.742 56.5954 188.605 60 191.81C62.9935 194.671 66.5439 196.886 70.4304 198.315C74.3168 199.745 78.4559 200.359 82.59 200.12C102.31 198.95 114.41 179.05 114.32 161.28C114.23 143.06 91.61 133.28 82.38 133.28C73.5453 133.411 65.1148 137.003 58.9008 143.284C52.6869 149.566 49.1857 158.034 49.15 166.87Z" fill="#323643"/>
<path d="M144.69 104.78C149.59 108.78 155.89 112.38 160.29 129.28C163.69 142.48 163.39 159.28 152.29 179.98C138.69 205.38 81.79 206.98 65.69 179.88C43.49 142.48 60.39 120.58 69.09 109.08C85.99 86.78 84.49 73.68 84.49 69.48C84.49 54.88 94.89 41.28 114.49 40.78C129.09 40.48 139.99 54.98 139.99 69.58C139.99 74.4069 138.677 79.1429 136.19 83.28C134.59 89.98 134.99 94.48 134.59 96.68C139.79 100 139.79 100.78 144.69 104.78Z" fill="#FF8C00"/>
<path d="M152.29 180C138.69 205.4 82.09 206.9 65.69 179.9C46 147.48 109.29 202.08 152.29 180Z" fill="#DD6E09"/>
<path d="M125.29 141.18C116.19 120.98 96.99 112.48 97.09 96.88C92.39 118.78 51.29 125.58 58.39 159.88C61.09 173.28 70.99 191.38 88.49 194.28C127.59 200.78 134.79 162.18 125.29 141.18Z" fill="white"/>
<path d="M58.29 161.48C60.69 176.88 72.99 194.98 95.89 196.08C109.59 196.78 121.09 189.58 125.99 176.38C107.19 190.68 64.19 180.08 58.29 161.48Z" fill="#DFDFDF"/>
<path d="M109.31 201.66C89.89 201.66 73.31 193.66 64.83 180.25C46.28 150.76 54.44 129.48 63.62 114.25C65.09 111.82 66.68 109.51 68.36 107.06C74.56 98.06 81.59 87.84 83.54 68.57C84.2304 61.0615 87.3396 53.9799 92.4 48.39C97.89 42.59 105.4 39.52 113.98 39.52C122.98 39.52 130.41 42.73 135.41 48.81C139.74 54.08 142.13 61.42 142.13 69.47C142.13 74.72 139.73 81.64 135.84 87.57C135.102 90.4718 134.689 93.4468 134.61 96.44C134.894 96.3769 135.192 96.4159 135.45 96.55C138.9 98.34 156.39 108.33 162.19 129.2C166.63 145.2 162.88 163.11 151.04 182.41C143.85 194.15 128.04 201.51 109.75 201.63L109.31 201.66ZM114 42C102.46 42 88.21 49 86 68.79C84 88.69 76.76 99.18 70.39 108.44C68.73 110.86 67.16 113.14 65.73 115.5C56.92 130.13 49.09 150.56 66.92 178.89C74.8 191.4 91.01 199.13 109.31 199.13H109.72C127.14 199.02 142.16 192.13 148.89 181.13C160.35 162.45 164.01 145.21 159.76 129.9C154.44 110.74 138.76 101.21 134.69 99.01C135.016 101.995 135.837 104.905 137.12 107.62C138.069 109.656 138.774 111.798 139.22 114C139.255 114.317 139.167 114.635 138.976 114.889C138.784 115.144 138.502 115.315 138.188 115.369C137.874 115.423 137.551 115.354 137.286 115.178C137.02 115.002 136.832 114.73 136.76 114.42C136.353 112.415 135.712 110.465 134.85 108.61C132.85 103.89 130.64 98.55 133.48 86.82L133.53 86.61L133.65 86.43C137.35 80.84 139.65 74.36 139.65 69.52C139.64 56.82 132.92 42 114 42Z" fill="#323643"/>
<path d="M106.19 52.58C113.99 45.38 128.29 49.88 132.39 57.88C128.69 61.38 135.19 71.88 121.29 76.28C120.59 88.08 102.39 86.68 97.49 93.88C95.29 86.28 89.49 84.28 86.69 78.68C86.19 77.78 85.19 78.28 84.89 77.28C82.39 77.08 48.89 70.18 51.19 67.48C51.69 66.88 86.69 72.38 86.69 71.68C85.89 60.38 90.39 52.98 93.39 50.18C98.19 45.68 104.39 44.28 106.19 52.58Z" fill="white"/>
<path d="M103.69 58.38C102.709 60.2251 101.258 61.7789 99.4851 62.885C97.712 63.991 95.6786 64.6101 93.59 64.68C88.49 65.08 10.89 56.78 5.98997 56.18C1.08997 55.58 -0.510026 58.68 3.38997 59.38C10.89 60.58 88.99 75.08 95.79 76.58C100.89 77.78 105.09 78.48 106.89 77.18" fill="white"/>
<path d="M103.89 79C101.061 78.8607 98.2547 78.4182 95.52 77.68C88.2 76.11 10.11 61.64 3.19998 60.54C0.589976 60.07 -0.150024 58.68 0.0199762 57.54C0.249976 56 2.25998 54.54 6.11998 55.02C12.57 55.81 88.62 63.89 93.49 63.52C95.3859 63.4651 97.2333 62.9087 98.8442 61.9074C100.455 60.9061 101.772 59.4957 102.66 57.82C102.811 57.5481 103.064 57.3474 103.363 57.2621C103.662 57.1768 103.983 57.2138 104.255 57.365C104.527 57.5161 104.727 57.7691 104.813 58.0682C104.898 58.3673 104.861 58.6881 104.71 58.96C103.635 60.9675 102.055 62.66 100.126 63.87C98.1967 65.0801 95.9853 65.766 93.71 65.86C88.33 66.28 9.64998 57.86 5.86998 57.36C4.71233 57.1111 3.50395 57.2812 2.45998 57.84C2.81495 58.0518 3.20988 58.188 3.61998 58.24C10.51 59.34 88.72 73.83 96.07 75.45C98.62 76.05 104.56 77.45 106.23 76.24C106.355 76.1493 106.496 76.0842 106.646 76.0482C106.796 76.0122 106.952 76.0062 107.104 76.0303C107.256 76.0544 107.402 76.1083 107.534 76.1889C107.665 76.2695 107.779 76.3752 107.87 76.5C107.961 76.6247 108.026 76.7661 108.062 76.916C108.098 77.066 108.104 77.2215 108.08 77.3738C108.055 77.5261 108.002 77.6721 107.921 77.8036C107.84 77.935 107.735 78.0493 107.61 78.14C106.491 78.8102 105.19 79.1111 103.89 79Z" fill="#323643"/>
<path d="M134.19 149.38C141.09 141.88 161.99 138.28 171.69 151.98C181.89 166.38 180.79 189.38 164.79 200.38C153.09 208.38 131.69 205.08 126.39 198.48C123.09 194.28 117.59 191.88 116.79 186.38C124.09 188.78 135 168.28 134.19 149.38Z" fill="#FF8C00"/>
<path d="M150.79 176.78C142.49 194.78 125.29 190.38 117.49 184.78C117.59 186.88 117.19 185.28 117.89 187.38C121.39 197.78 136.89 209.88 150.69 205.08C165.79 199.88 181.99 185.78 176.89 164.28C172.59 174.88 157.19 163 150.79 176.78Z" fill="#DD6E09"/>
<path d="M146.08 207.09C139.28 207.103 132.626 205.114 126.95 201.37C126.67 201.2 118.3 196.01 115.58 186.06C115.529 185.875 115.516 185.682 115.54 185.491C115.564 185.301 115.626 185.117 115.721 184.95C115.816 184.784 115.943 184.637 116.095 184.52C116.246 184.402 116.42 184.316 116.605 184.265C116.79 184.214 116.983 184.201 117.174 184.225C117.364 184.249 117.548 184.311 117.715 184.406C117.881 184.501 118.028 184.628 118.145 184.78C118.263 184.931 118.349 185.105 118.4 185.29C120.81 194.09 128.48 198.88 128.55 198.93C134.991 203.133 142.729 204.876 150.35 203.84C154.3 203.229 158.088 201.835 161.491 199.74C164.895 197.645 167.846 194.891 170.17 191.64C172.75 188.007 174.589 183.9 175.581 179.555C176.573 175.211 176.698 170.713 175.95 166.32C174.53 157.63 170.17 150.55 163.7 146.38C157.52 142.38 150.04 141.43 142.07 143.59C141.885 143.64 141.692 143.653 141.501 143.628C141.311 143.603 141.128 143.541 140.962 143.446C140.795 143.35 140.65 143.223 140.533 143.071C140.416 142.919 140.33 142.745 140.28 142.56C140.23 142.375 140.217 142.182 140.242 141.991C140.267 141.801 140.329 141.618 140.424 141.452C140.52 141.285 140.647 141.14 140.799 141.023C140.951 140.906 141.125 140.82 141.31 140.77C149.97 138.43 158.48 139.55 165.31 143.92C172.49 148.54 177.31 156.33 178.86 165.84C179.671 170.614 179.534 175.501 178.454 180.221C177.375 184.942 175.375 189.403 172.57 193.35C170.023 196.915 166.788 199.935 163.056 202.231C159.324 204.527 155.171 206.053 150.84 206.72C149.266 206.973 147.674 207.097 146.08 207.09Z" fill="#323643"/>
<path d="M169.19 181.54C164.973 181.551 160.76 181.273 156.58 180.71C155.67 180.579 154.795 180.269 154.004 179.8C153.214 179.33 152.523 178.71 151.973 177.973C151.422 177.237 151.022 176.399 150.795 175.508C150.568 174.617 150.519 173.69 150.65 172.78C150.781 171.87 151.091 170.995 151.56 170.204C152.03 169.414 152.65 168.723 153.387 168.173C154.123 167.622 154.961 167.222 155.852 166.995C156.743 166.768 157.67 166.719 158.58 166.85C166.21 167.93 189.31 168.85 195.31 159.02C196.281 157.439 197.839 156.308 199.643 155.875C201.447 155.443 203.348 155.744 204.93 156.712C206.513 157.681 207.645 159.238 208.08 161.041C208.515 162.845 208.217 164.747 207.25 166.33C199.42 179.13 181.56 181.54 169.19 181.54Z" fill="#323643"/>
<path d="M169 178.1C165.018 178.113 161.039 177.863 157.09 177.35C156.183 177.173 155.378 176.655 154.842 175.903C154.305 175.151 154.078 174.221 154.206 173.306C154.334 172.391 154.808 171.56 155.531 170.984C156.253 170.408 157.169 170.131 158.09 170.21C166.87 171.47 191.19 172.21 198.2 160.8C198.437 160.374 198.757 160.001 199.142 159.703C199.526 159.404 199.968 159.187 200.438 159.063C200.909 158.94 201.401 158.913 201.882 158.984C202.364 159.055 202.826 159.223 203.241 159.477C203.656 159.732 204.016 160.067 204.298 160.464C204.58 160.861 204.778 161.311 204.882 161.787C204.986 162.263 204.992 162.755 204.9 163.233C204.809 163.711 204.622 164.166 204.35 164.57C197.38 176 180.56 178.1 169 178.1Z" fill="white"/>
<path d="M120.66 63.46C120.852 62.579 120.781 61.661 120.456 60.8201C120.13 59.9792 119.565 59.2525 118.83 58.7303C118.095 58.208 117.223 57.9133 116.321 57.8828C115.42 57.8522 114.53 58.0872 113.761 58.5585C112.993 59.0297 112.379 59.7165 111.998 60.5335C111.616 61.3504 111.483 62.2615 111.615 63.1534C111.747 64.0454 112.138 64.8789 112.74 65.5503C113.342 66.2218 114.128 66.7015 115 66.93C116.211 67.2189 117.486 67.0158 118.547 66.3653C119.609 65.7148 120.368 64.6699 120.66 63.46Z" fill="#323643"/>
<path d="M96.4 60.36C97.4 58.03 96.6 55.43 94.57 54.54C92.54 53.65 90.08 54.83 89.07 57.16C88.06 59.49 88.87 62.09 90.9 62.98C92.93 63.87 95.39 62.69 96.4 60.36Z" fill="#323643"/>
<path d="M153.08 265.88C152.41 265.88 151.751 265.712 151.163 265.391C150.575 265.07 150.077 264.607 149.715 264.044C149.353 263.48 149.138 262.835 149.09 262.167C149.042 261.499 149.162 260.829 149.44 260.22L231.94 79.42C232.38 78.4546 233.186 77.7037 234.18 77.3323C235.174 76.961 236.275 76.9997 237.24 77.44C238.205 77.8803 238.956 78.686 239.328 79.6799C239.699 80.6739 239.66 81.7746 239.22 82.74L156.72 263.54C156.402 264.238 155.889 264.83 155.244 265.245C154.598 265.66 153.847 265.88 153.08 265.88Z" fill="#323643"/>
<path d="M204.83 176.54C194.71 176.54 184.38 170.27 183.17 169.54C181.627 168.542 180.538 166.977 180.139 165.183C179.74 163.389 180.062 161.51 181.036 159.952C182.01 158.393 183.558 157.281 185.345 156.854C187.133 156.427 189.017 156.72 190.59 157.67C193.99 159.78 201.09 162.96 205.65 162.54C206.572 162.442 207.505 162.529 208.393 162.795C209.282 163.061 210.109 163.5 210.826 164.088C211.543 164.677 212.136 165.401 212.571 166.221C213.005 167.04 213.273 167.937 213.358 168.861C213.443 169.785 213.343 170.716 213.065 171.601C212.787 172.485 212.335 173.306 211.737 174.015C211.139 174.724 210.406 175.307 209.581 175.73C208.756 176.153 207.855 176.408 206.93 176.48C206.23 176.51 205.53 176.54 204.83 176.54Z" fill="#323643"/>
<path d="M210.79 167.18C210.357 167.18 209.925 167.14 209.5 167.06C199.5 165.2 187.5 155.82 186.12 154.76C185.398 154.188 184.795 153.479 184.347 152.675C183.898 151.87 183.613 150.985 183.506 150.07C183.4 149.154 183.475 148.227 183.727 147.341C183.979 146.455 184.403 145.627 184.975 144.905C186.13 143.446 187.817 142.506 189.665 142.291C190.58 142.185 191.508 142.26 192.394 142.512C193.28 142.764 194.108 143.188 194.83 143.76C198.83 146.94 207.07 152.33 212.06 153.26C213.773 153.581 215.304 154.53 216.355 155.92C217.405 157.31 217.899 159.042 217.74 160.778C217.582 162.513 216.781 164.127 215.496 165.303C214.211 166.48 212.533 167.135 210.79 167.14V167.18Z" fill="#323643"/>
<path d="M213.59 155.48C213.184 155.478 212.779 155.442 212.38 155.37C201.76 153.52 192.29 143.56 191.24 142.43C190.025 141.061 189.394 139.27 189.484 137.441C189.573 135.612 190.376 133.891 191.719 132.647C193.063 131.403 194.84 130.735 196.67 130.786C198.5 130.837 200.238 131.603 201.51 132.92C204.25 135.85 210.27 140.8 214.78 141.59C216.511 141.886 218.067 142.821 219.141 144.211C220.214 145.6 220.726 147.343 220.575 149.092C220.424 150.842 219.621 152.47 218.325 153.655C217.03 154.84 215.336 155.495 213.58 155.49L213.59 155.48Z" fill="#323643"/>
<path d="M204.83 173C195.52 173 185.47 166.78 185.02 166.5C184.271 165.991 183.749 165.212 183.563 164.326C183.377 163.44 183.541 162.517 184.021 161.749C184.501 160.982 185.26 160.43 186.138 160.21C187.016 159.991 187.945 160.119 188.73 160.57C191.44 162.26 199.81 166.57 205.95 165.95C206.878 165.865 207.802 166.152 208.519 166.749C209.235 167.345 209.685 168.202 209.77 169.13C209.855 170.058 209.567 170.982 208.971 171.699C208.375 172.415 207.518 172.865 206.59 172.95C206 173 205.43 173 204.83 173Z" fill="white"/>
<path d="M210.79 163.68C210.575 163.679 210.361 163.659 210.15 163.62C200.8 161.88 188.82 152.42 188.31 152.02C187.616 151.433 187.177 150.598 187.087 149.693C186.997 148.788 187.263 147.884 187.829 147.171C188.394 146.459 189.215 145.995 190.116 145.877C191.018 145.759 191.93 145.997 192.66 146.54C195.73 148.98 205.09 155.54 211.42 156.74C212.277 156.901 213.043 157.375 213.568 158.071C214.093 158.767 214.34 159.633 214.26 160.501C214.18 161.369 213.779 162.176 213.135 162.764C212.492 163.352 211.652 163.679 210.78 163.68H210.79Z" fill="white"/>
<path d="M213.59 152C213.386 152.001 213.182 151.984 212.98 151.95C203.33 150.27 194.2 140.49 193.81 140.08C193.496 139.739 193.252 139.34 193.093 138.905C192.933 138.47 192.861 138.008 192.88 137.545C192.899 137.082 193.009 136.628 193.204 136.207C193.399 135.787 193.674 135.409 194.015 135.095C194.356 134.781 194.755 134.537 195.19 134.378C195.625 134.218 196.087 134.146 196.55 134.165C197.013 134.184 197.467 134.294 197.888 134.489C198.308 134.684 198.686 134.959 199 135.3C201.18 137.65 208.17 143.97 214.23 145.03C215.095 145.178 215.874 145.646 216.41 146.34C216.947 147.035 217.203 147.906 217.128 148.781C217.052 149.656 216.651 150.47 216.003 151.063C215.355 151.655 214.508 151.983 213.63 151.98L213.59 152Z" fill="white"/>
<path d="M264.39 58.78C268.59 57.78 273.79 59.78 273.79 59.78C266.49 62.58 260.49 70.98 257.39 75.18C254.29 79.38 248.19 85.38 240.19 81.48C242.057 71.4111 245.787 61.7794 251.19 53.08C252.99 53.18 256.89 53.98 260.19 59.08C257.79 51.78 257.39 44.08 261.19 30.48C250.09 38.28 244.99 44.08 237.69 52.48C240.709 52.1214 243.751 51.9877 246.79 52.08C241.49 62.68 233.39 78.38 231.39 78.68C229.39 78.98 218.69 74.08 223.59 63.68C227.29 55.78 227.19 46.68 226.99 43.88L227.79 44.18C227.79 44.18 230.19 44.88 232.29 49.08C232.29 38.28 224.99 30.58 221.49 26.38C219.09 35.48 216.59 43.18 214.89 46.98C219.29 46.68 219.79 44.48 222.59 43.48C222.79 47.88 223.79 54.88 219.09 62.28C211.79 73.78 218.39 84.68 230.99 89.58C243.59 94.48 252.99 91.98 261.39 78.78C269.79 65.58 278.89 62 278.89 62C279.338 65.0671 280.82 67.8894 283.09 70C283.09 64.8 287.49 57.1 290.99 51.8C277.39 50.38 264.39 58.78 264.39 58.78Z" fill="#323643"/>
<path d="M121.09 58.5799C121.09 58.5799 124.89 56.0799 119.59 55.2799C114.29 54.4799 110.29 62.7799 110.29 62.7799C112.213 61.799 114.221 60.9957 116.29 60.3799C117.933 59.9023 119.538 59.3005 121.09 58.5799Z" fill="white"/>
<path d="M97.39 60.88C97.39 60.88 101.99 53.08 97.29 52.28C92.79 51.58 89.89 55.48 89.89 55.48C92 55.68 97.39 60.88 97.39 60.88Z" fill="white"/>
<path d="M96.79 62.3299C96.652 62.3297 96.5162 62.2959 96.3943 62.2314C96.2723 62.167 96.1679 62.0738 96.09 61.9599C94.2386 59.0882 91.6052 56.8053 88.5 55.3799C88.2878 55.303 88.1149 55.145 88.0192 54.9406C87.9236 54.7362 87.9131 54.5021 87.99 54.2899C88.0669 54.0778 88.2249 53.9048 88.4293 53.8092C88.6338 53.7136 88.8678 53.703 89.08 53.7799C92.5302 55.3105 95.4547 57.8212 97.49 60.9999C97.5773 61.1275 97.6281 61.2765 97.6371 61.4308C97.646 61.5852 97.6126 61.739 97.5406 61.8758C97.4686 62.0126 97.3607 62.1272 97.2284 62.2072C97.0962 62.2872 96.9446 62.3297 96.79 62.3299Z" fill="#323643"/>
<path d="M109.79 65C109.622 64.9996 109.458 64.9495 109.319 64.8561C109.179 64.7626 109.071 64.63 109.007 64.475C108.942 64.3199 108.926 64.1493 108.958 63.9847C108.991 63.8201 109.072 63.6688 109.19 63.55C109.42 63.32 114.91 57.91 122.26 57.6C122.372 57.5954 122.483 57.6128 122.588 57.6513C122.693 57.6897 122.789 57.7485 122.871 57.8242C122.953 57.8999 123.02 57.991 123.067 58.0923C123.114 58.1937 123.14 58.3033 123.145 58.415C123.15 58.5266 123.132 58.638 123.094 58.7429C123.055 58.8478 122.996 58.9441 122.921 59.0263C122.845 59.1084 122.754 59.1749 122.653 59.2219C122.551 59.2688 122.442 59.2954 122.33 59.3C115.64 59.58 110.45 64.7 110.4 64.75C110.32 64.8302 110.225 64.8936 110.12 64.9365C110.015 64.9794 109.903 65.001 109.79 65Z" fill="#323643"/>
<path d="M113 52.6799C113 52.6799 116.6 49.1799 123.5 49.8799L113 52.6799Z" fill="#D99541"/>
<path d="M113 53.79C112.78 53.79 112.565 53.7246 112.382 53.602C112.199 53.4794 112.056 53.3052 111.973 53.1015C111.889 52.8978 111.868 52.6739 111.912 52.4582C111.956 52.2424 112.063 52.0446 112.22 51.89C112.38 51.73 116.27 48.04 123.61 48.78C123.903 48.8091 124.173 48.9535 124.359 49.1814C124.546 49.4093 124.634 49.7019 124.605 49.995C124.576 50.288 124.431 50.5575 124.204 50.7441C123.976 50.9307 123.683 51.0191 123.39 50.99C117.14 50.35 113.91 53.36 113.77 53.49C113.561 53.6853 113.286 53.7928 113 53.79Z" fill="#323643"/>
<path d="M95.39 44.88C98.3434 46.5097 100.745 48.9812 102.29 51.98L95.39 44.88Z" fill="#D99541"/>
<path d="M102.29 53.09C102.08 53.0889 101.874 53.0282 101.697 52.9149C101.52 52.8016 101.379 52.6404 101.29 52.45C99.8504 49.6748 97.6242 47.386 94.89 45.87C94.6248 45.7374 94.4231 45.5048 94.3293 45.2235C94.2829 45.0843 94.2644 44.9372 94.2748 44.7907C94.2852 44.6443 94.3243 44.5013 94.39 44.37C94.4557 44.2387 94.5466 44.1216 94.6575 44.0254C94.7684 43.9292 94.8972 43.8558 95.0365 43.8093C95.3178 43.7156 95.6248 43.7374 95.89 43.87C99.067 45.6078 101.646 48.2635 103.29 51.49C103.369 51.6587 103.404 51.8446 103.392 52.0305C103.38 52.2163 103.322 52.3962 103.222 52.5536C103.123 52.711 102.985 52.8408 102.822 52.931C102.659 53.0213 102.476 53.0691 102.29 53.07V53.09Z" fill="#323643"/>
<path d="M118 63.18C118.178 63.18 118.352 63.1272 118.5 63.0283C118.648 62.9294 118.763 62.7889 118.831 62.6244C118.9 62.46 118.917 62.279 118.883 62.1044C118.848 61.9298 118.762 61.7695 118.636 61.6436C118.511 61.5177 118.35 61.432 118.176 61.3973C118.001 61.3626 117.82 61.3804 117.656 61.4485C117.491 61.5166 117.351 61.632 117.252 61.78C117.153 61.928 117.1 62.102 117.1 62.28C117.1 62.5187 117.195 62.7476 117.364 62.9164C117.532 63.0852 117.761 63.18 118 63.18Z" fill="white"/>
<path d="M93.89 61.08C94.068 61.08 94.242 61.0272 94.39 60.9284C94.538 60.8295 94.6534 60.6889 94.7215 60.5244C94.7896 60.36 94.8074 60.179 94.7727 60.0044C94.738 59.8299 94.6523 59.6695 94.5264 59.5436C94.4005 59.4178 94.2402 59.3321 94.0656 59.2973C93.891 59.2626 93.71 59.2804 93.5456 59.3485C93.3811 59.4167 93.2406 59.532 93.1417 59.68C93.0428 59.828 92.99 60.002 92.99 60.18C92.99 60.4187 93.0848 60.6476 93.2536 60.8164C93.4224 60.9852 93.6513 61.08 93.89 61.08Z" fill="white"/>
<path d="M97.89 254.27C97.6911 254.271 97.4947 254.226 97.3162 254.138C97.1376 254.051 96.9817 253.923 96.8607 253.765C96.7397 253.607 96.6568 253.424 96.6185 253.228C96.5802 253.033 96.5876 252.832 96.64 252.64C96.64 252.64 97.56 249.27 99.23 242.64C99.3237 242.32 99.5378 242.048 99.8275 241.883C100.117 241.717 100.46 241.67 100.783 241.751C101.107 241.833 101.386 242.037 101.563 242.32C101.739 242.603 101.799 242.944 101.73 243.27C100.05 249.9 99.13 253.27 99.12 253.27C99.0555 253.55 98.8995 253.8 98.6767 253.981C98.4539 254.162 98.177 254.264 97.89 254.27Z" fill="#323643"/>
<path d="M106.49 51.38C106.49 50.58 97.99 39.48 109.99 24.08C107.59 30.68 107.69 40.08 111.09 45.08" fill="#FF8C00"/>
<path d="M106.49 52.5199C106.227 52.5207 105.972 52.4305 105.768 52.2647C105.564 52.0988 105.423 51.8675 105.37 51.6099C105.37 51.4999 105.24 51.3399 105.13 51.1199C100.5 42.0299 101.83 32.6899 109.13 23.3799C109.282 23.1287 109.525 22.9456 109.808 22.869C110.091 22.7924 110.393 22.828 110.651 22.9685C110.909 23.109 111.103 23.3435 111.192 23.6232C111.281 23.9028 111.259 24.2062 111.13 24.4699C108.67 31.2399 109.13 40.0099 112.13 44.4699C112.3 44.7205 112.363 45.0283 112.306 45.3256C112.249 45.6228 112.076 45.8852 111.825 46.0549C111.574 46.2247 111.267 46.2879 110.969 46.2307C110.672 46.1735 110.41 46.0005 110.24 45.7499C107.57 41.8299 106.89 35.6599 107.55 30.0999C104.03 36.8699 103.93 43.5799 107.26 50.0999C107.519 50.4856 107.68 50.9282 107.73 51.3899C107.729 51.5476 107.696 51.7034 107.632 51.8474C107.568 51.9915 107.474 52.1207 107.358 52.2269C107.241 52.3331 107.104 52.414 106.955 52.4644C106.805 52.5148 106.647 52.5337 106.49 52.5199Z" fill="#323643"/>
<path d="M134.79 53.7799C134.79 53.7799 142.59 49.0799 160.09 53.7799C154.89 62.4799 145.39 65.2799 138.89 60.3799" fill="#FF8C00"/>
<path d="M146.08 63.9999C143.218 64.0087 140.432 63.0777 138.15 61.3499C137.885 61.1537 137.708 60.8601 137.66 60.5338C137.611 60.2075 137.694 59.8751 137.89 59.6099C138.086 59.3447 138.38 59.1683 138.706 59.1196C139.032 59.0708 139.365 59.1537 139.63 59.3499C140.86 60.2709 142.272 60.9194 143.772 61.2522C145.272 61.585 146.826 61.5944 148.33 61.2799C152.343 60.3484 155.848 57.9196 158.13 54.4899C142.48 50.6799 135.5 54.7299 135.43 54.7799C135.292 54.8769 135.136 54.9445 134.97 54.9785C134.805 55.0125 134.635 55.0122 134.47 54.9775C134.305 54.9428 134.148 54.8746 134.011 54.777C133.873 54.6794 133.757 54.5546 133.67 54.4103C133.583 54.2659 133.526 54.1052 133.504 53.9381C133.481 53.7709 133.493 53.6009 133.539 53.4386C133.585 53.2764 133.664 53.1253 133.771 52.9947C133.877 52.8642 134.01 52.7571 134.16 52.6799C134.5 52.4799 142.61 47.7599 160.41 52.5499C160.594 52.5988 160.764 52.6898 160.907 52.8157C161.05 52.9416 161.162 53.099 161.234 53.2754C161.305 53.4519 161.335 53.6426 161.321 53.8325C161.306 54.0225 161.248 54.2064 161.15 54.3699C158.15 59.3699 153.68 62.7499 148.8 63.6999C147.905 63.8874 146.994 63.9879 146.08 63.9999Z" fill="#323643"/>
<path d="M110 42.58C110 41.78 109.2 33.28 115.8 27.88C115.8 27.88 112.3 37.58 115.8 42.18" fill="#FF8C00"/>
<path d="M110 43.72C109.698 43.72 109.408 43.5999 109.194 43.3861C108.98 43.1723 108.86 42.8823 108.86 42.58V42.38C108.61 35.95 110.86 30.49 115.09 27C115.283 26.839 115.523 26.7462 115.774 26.736C116.025 26.7259 116.273 26.7988 116.478 26.9436C116.683 27.0884 116.835 27.2969 116.909 27.5368C116.984 27.7766 116.977 28.0344 116.89 28.27C115.98 30.81 114.17 38.13 116.72 41.49C116.903 41.7313 116.983 42.0355 116.941 42.3355C116.9 42.6356 116.741 42.907 116.5 43.09C116.259 43.273 115.954 43.3526 115.654 43.3113C115.354 43.2701 115.083 43.1113 114.9 42.87C112.73 40.02 112.9 35.6 113.51 32.23C111.738 35.2735 110.913 38.7757 111.14 42.29C111.14 42.42 111.14 42.52 111.14 42.58C111.14 42.8823 111.02 43.1723 110.806 43.3861C110.592 43.5999 110.302 43.72 110 43.72Z" fill="#323643"/>
<path d="M97.39 83.2499C97.1948 83.2567 97.001 83.2144 96.8264 83.1271C96.6517 83.0398 96.5017 82.9101 96.39 82.7499C93.24 79.2799 31.48 66.6199 22.1 65.1399L19.39 64.6699C14.17 63.7799 9.65997 62.9999 7.69997 61.8999C7.54505 61.8364 7.40558 61.7403 7.29097 61.6182C7.17637 61.4962 7.0893 61.3509 7.03566 61.1923C6.98202 61.0337 6.96305 60.8654 6.98003 60.6988C6.99702 60.5322 7.04956 60.3712 7.13411 60.2267C7.21866 60.0821 7.33325 59.9574 7.47014 59.861C7.60702 59.7646 7.76301 59.6986 7.92757 59.6677C8.09212 59.6367 8.26141 59.6414 8.42399 59.6815C8.58657 59.7215 8.73866 59.796 8.86997 59.8999C10.46 60.8099 15.2 61.6199 19.79 62.3999L22.49 62.8599C23.18 62.9699 94.93 76.5599 98.35 81.4399C98.4776 81.6182 98.5525 81.8287 98.5663 82.0474C98.58 82.2662 98.5321 82.4845 98.4278 82.6773C98.3236 82.8701 98.1673 83.0298 97.9767 83.1381C97.7861 83.2464 97.569 83.299 97.35 83.2899L97.39 83.2499Z" fill="#323643"/>
<path d="M138.69 57.08C136.39 56.18 142.19 54.38 146.69 55.28L138.69 57.08Z" fill="#D99541"/>
<path d="M138.67 58.1899C138.537 58.1916 138.404 58.1678 138.28 58.1199C136.81 57.5399 137.05 56.4299 137.11 56.2199C137.71 54.2199 143.55 53.5299 146.9 54.2199C147.043 54.2488 147.179 54.3056 147.3 54.3871C147.422 54.4686 147.526 54.5731 147.606 54.6948C147.687 54.8164 147.743 54.9528 147.771 55.0961C147.799 55.2394 147.799 55.3868 147.77 55.5299C147.741 55.6731 147.684 55.8091 147.603 55.9303C147.521 56.0515 147.417 56.1555 147.295 56.2362C147.174 56.317 147.037 56.3731 146.894 56.4012C146.751 56.4292 146.603 56.4288 146.46 56.3999C144.206 55.9942 141.887 56.1383 139.7 56.8199C139.772 57.0374 139.772 57.2725 139.7 57.4899C139.619 57.697 139.477 57.8748 139.294 57.9997C139.11 58.1247 138.892 58.191 138.67 58.1899Z" fill="#323643"/>
<path d="M135.69 51.78C151.29 46.98 150.79 36.38 150.09 17.88C146.59 39.38 133.69 43.78 126.99 43.78C127.19 49 131.39 53.38 135.69 51.78Z" fill="#323643"/>
<path d="M133.87 53.29C132.537 53.2765 131.238 52.8656 130.14 52.11C128.826 51.1594 127.751 49.9166 127 48.4798C126.249 47.0429 125.841 45.4511 125.81 43.83C125.803 43.6705 125.829 43.5112 125.886 43.3621C125.943 43.213 126.03 43.0771 126.141 42.9628C126.253 42.8485 126.387 42.7583 126.534 42.6976C126.682 42.6369 126.84 42.6071 127 42.61C130 42.61 145.08 41.41 148.94 17.69C148.978 17.3964 149.127 17.1284 149.355 16.9399C149.583 16.7514 149.875 16.6565 150.17 16.6742C150.466 16.692 150.744 16.8211 150.948 17.0356C151.152 17.2501 151.267 17.5339 151.27 17.83V18.17C151.97 36.67 152.4 47.84 136.06 52.88C135.36 53.1444 134.618 53.2832 133.87 53.29ZM128.28 44.9C128.435 45.9415 128.793 46.9423 129.336 47.845C129.878 48.7476 130.593 49.5343 131.44 50.16C131.987 50.5533 132.622 50.8072 133.289 50.8995C133.957 50.9919 134.637 50.92 135.27 50.69H135.33C147.57 46.92 149.33 39.39 149.16 26.52C143.8 42.06 132.69 44.54 128.28 44.9Z" fill="#323643"/>
<path d="M175 113.69C165.66 113.69 156.21 109.23 151.43 103.83C148.88 100.95 148.76 98.4099 149.1 96.8299C149.358 95.7465 149.871 94.7404 150.597 93.8951C151.322 93.0499 152.238 92.3899 153.27 91.9699C154.148 91.5738 155.14 91.5079 156.063 91.7844C156.986 92.0609 157.778 92.6611 158.293 93.4748C158.809 94.2886 159.014 95.2611 158.87 96.2137C158.726 97.1662 158.243 98.0349 157.51 98.6599C161.91 103.51 172.41 107.26 180.04 105.04C185.36 103.5 188.6 99.2999 189.68 92.5699C189.763 92.0512 189.948 91.554 190.224 91.1067C190.499 90.6594 190.86 90.2707 191.286 89.9629C191.712 89.655 192.194 89.4341 192.705 89.3126C193.216 89.1912 193.746 89.1715 194.265 89.2549C194.784 89.3383 195.281 89.5231 195.728 89.7986C196.176 90.0742 196.564 90.4351 196.872 90.8609C197.18 91.2866 197.401 91.7689 197.522 92.28C197.644 92.7912 197.663 93.3212 197.58 93.8399C196.01 103.6 190.58 110.31 182.28 112.72C179.911 113.385 177.46 113.712 175 113.69Z" fill="#323643"/>
<path d="M175 111.17C166.51 111.17 157.62 107.17 153.21 102.17C151.35 100.07 151.21 98.37 151.46 97.31C151.631 96.6068 151.972 95.9564 152.453 95.4158C152.935 94.8753 153.541 94.4612 154.22 94.21L155.46 96.94C155.11 97.1 154.46 97.44 154.4 97.94C154.413 98.3686 154.515 98.7899 154.699 99.1772C154.883 99.5645 155.146 99.9093 155.47 100.19C160.32 105.66 171.85 109.98 180.66 107.42C186.9 105.61 190.84 100.6 192.07 92.95L195.07 93.42C193.27 104.64 186.72 108.79 181.54 110.3C179.412 110.899 177.21 111.192 175 111.17Z" fill="#FB7D08"/>
<path d="M164.77 98.14C160.51 96.2 157.09 96.3 155.46 96.96L154.33 94.18C157.25 92.98 161.73 93.45 166.02 95.4L164.77 98.14Z" fill="#FB7D08"/>
<path d="M186.69 93.8799C186.69 93.8799 192.29 91.6799 194.29 92.3799C195.898 93.68 197.283 95.2337 198.39 96.9799C198.39 96.9799 200.19 86.9799 198.09 79.7799C198.09 79.6799 191.39 83.8799 186.69 93.8799Z" fill="#FF8C00"/>
<path d="M199.12 101.38L197.12 97.6999C196.172 96.1961 194.998 94.847 193.64 93.6999C192.56 93.5599 189.53 94.3399 187.28 95.2299L183.77 96.6099L185.37 93.1999C189.76 83.8699 196.81 77.8999 198.45 78.2699L199.62 78.5299V79.5299C201.7 86.9599 199.97 96.7899 199.9 97.2099L199.12 101.38ZM193.29 90.7499C193.798 90.7366 194.305 90.8075 194.79 90.9599L195 90.9999L195.2 91.1599C195.952 91.7803 196.664 92.4483 197.33 93.1599C197.722 89.5421 197.648 85.8889 197.11 82.2899C194.142 84.8422 191.635 87.8867 189.7 91.2899C190.867 90.9641 192.069 90.7827 193.28 90.7499H193.29Z" fill="#323643"/>
<path d="M88.49 23.08C88.49 23.08 86.09 36.48 93.39 43.98C93.9176 43.2928 94.6038 42.7438 95.39 42.38C91.39 38.48 88.19 32.38 88.49 23.08Z" fill="#DFDFDF"/>
<path d="M133 47.18C138.2 44.88 147.8 40.58 149.3 28.58C149.7 39.98 141.6 46.48 134.7 49.08C134.69 49.18 133.59 48.88 133 47.18Z" fill="#DFDFDF"/>
</g>
<defs>
<clipPath id="clip0">
<rect width="291" height="267" fill="white"/>
</clipPath>
</defs>
</svg>
